%TF.GenerationSoftware,KiCad,Pcbnew,(6.0.9)*%
%TF.CreationDate,2022-11-30T22:11:57-05:00*%
%TF.ProjectId,Roboshot,526f626f-7368-46f7-942e-6b696361645f,rev?*%
%TF.SameCoordinates,Original*%
%TF.FileFunction,Drillmap*%
%TF.FilePolarity,Positive*%
%FSLAX45Y45*%
G04 Gerber Fmt 4.5, Leading zero omitted, Abs format (unit mm)*
G04 Created by KiCad (PCBNEW (6.0.9)) date 2022-11-30 22:11:57*
%MOMM*%
%LPD*%
G01*
G04 APERTURE LIST*
%ADD10C,0.100000*%
%ADD11C,0.200000*%
G04 APERTURE END LIST*
D10*
X7467600Y-10144760D02*
X13797280Y-10144760D01*
X7990840Y-18394680D02*
G75*
G03*
X7990840Y-18394680I-152400J0D01*
G01*
X13797280Y-18735040D02*
X7467600Y-18745200D01*
X8702040Y-11602720D02*
G75*
G03*
X8702040Y-11602720I-152400J0D01*
G01*
X7467600Y-10144760D02*
X7467600Y-18745200D01*
X13512800Y-14655800D02*
G75*
G03*
X13512800Y-14655800I-152400J0D01*
G01*
X13797280Y-10144760D02*
X13797280Y-18735040D01*
D11*
X7720219Y-19060676D02*
X7720219Y-18860676D01*
X7767838Y-18860676D01*
X7796409Y-18870200D01*
X7815457Y-18889248D01*
X7824981Y-18908295D01*
X7834505Y-18946390D01*
X7834505Y-18974962D01*
X7824981Y-19013057D01*
X7815457Y-19032105D01*
X7796409Y-19051152D01*
X7767838Y-19060676D01*
X7720219Y-19060676D01*
X7920219Y-19060676D02*
X7920219Y-18927343D01*
X7920219Y-18965438D02*
X7929743Y-18946390D01*
X7939267Y-18936867D01*
X7958314Y-18927343D01*
X7977362Y-18927343D01*
X8044028Y-19060676D02*
X8044028Y-18927343D01*
X8044028Y-18860676D02*
X8034505Y-18870200D01*
X8044028Y-18879724D01*
X8053552Y-18870200D01*
X8044028Y-18860676D01*
X8044028Y-18879724D01*
X8167838Y-19060676D02*
X8148790Y-19051152D01*
X8139267Y-19032105D01*
X8139267Y-18860676D01*
X8272600Y-19060676D02*
X8253552Y-19051152D01*
X8244028Y-19032105D01*
X8244028Y-18860676D01*
X8501171Y-19060676D02*
X8501171Y-18860676D01*
X8567838Y-19003533D01*
X8634505Y-18860676D01*
X8634505Y-19060676D01*
X8815457Y-19060676D02*
X8815457Y-18955914D01*
X8805933Y-18936867D01*
X8786886Y-18927343D01*
X8748790Y-18927343D01*
X8729743Y-18936867D01*
X8815457Y-19051152D02*
X8796410Y-19060676D01*
X8748790Y-19060676D01*
X8729743Y-19051152D01*
X8720219Y-19032105D01*
X8720219Y-19013057D01*
X8729743Y-18994010D01*
X8748790Y-18984486D01*
X8796410Y-18984486D01*
X8815457Y-18974962D01*
X8910695Y-18927343D02*
X8910695Y-19127343D01*
X8910695Y-18936867D02*
X8929743Y-18927343D01*
X8967838Y-18927343D01*
X8986886Y-18936867D01*
X8996410Y-18946390D01*
X9005933Y-18965438D01*
X9005933Y-19022581D01*
X8996410Y-19041629D01*
X8986886Y-19051152D01*
X8967838Y-19060676D01*
X8929743Y-19060676D01*
X8910695Y-19051152D01*
X9091648Y-19041629D02*
X9101171Y-19051152D01*
X9091648Y-19060676D01*
X9082124Y-19051152D01*
X9091648Y-19041629D01*
X9091648Y-19060676D01*
X9091648Y-18936867D02*
X9101171Y-18946390D01*
X9091648Y-18955914D01*
X9082124Y-18946390D01*
X9091648Y-18936867D01*
X9091648Y-18955914D01*
M02*
