G04 #@! TF.GenerationSoftware,KiCad,Pcbnew,(6.0.9)*
G04 #@! TF.CreationDate,2022-11-30T22:13:12-05:00*
G04 #@! TF.ProjectId,Roboshot,526f626f-7368-46f7-942e-6b696361645f,rev?*
G04 #@! TF.SameCoordinates,Original*
G04 #@! TF.FileFunction,Soldermask,Bot*
G04 #@! TF.FilePolarity,Negative*
%FSLAX46Y46*%
G04 Gerber Fmt 4.6, Leading zero omitted, Abs format (unit mm)*
G04 Created by KiCad (PCBNEW (6.0.9)) date 2022-11-30 22:13:12*
%MOMM*%
%LPD*%
G01*
G04 APERTURE LIST*
G04 Aperture macros list*
%AMRoundRect*
0 Rectangle with rounded corners*
0 $1 Rounding radius*
0 $2 $3 $4 $5 $6 $7 $8 $9 X,Y pos of 4 corners*
0 Add a 4 corners polygon primitive as box body*
4,1,4,$2,$3,$4,$5,$6,$7,$8,$9,$2,$3,0*
0 Add four circle primitives for the rounded corners*
1,1,$1+$1,$2,$3*
1,1,$1+$1,$4,$5*
1,1,$1+$1,$6,$7*
1,1,$1+$1,$8,$9*
0 Add four rect primitives between the rounded corners*
20,1,$1+$1,$2,$3,$4,$5,0*
20,1,$1+$1,$4,$5,$6,$7,0*
20,1,$1+$1,$6,$7,$8,$9,0*
20,1,$1+$1,$8,$9,$2,$3,0*%
G04 Aperture macros list end*
%ADD10R,3.000000X3.000000*%
%ADD11C,3.000000*%
%ADD12O,1.700000X1.700000*%
%ADD13R,1.700000X1.700000*%
%ADD14R,1.980000X3.960000*%
%ADD15O,1.980000X3.960000*%
%ADD16R,1.500000X1.050000*%
%ADD17O,1.500000X1.050000*%
%ADD18C,1.778000*%
%ADD19R,1.800000X1.714500*%
%ADD20O,1.800000X1.714500*%
%ADD21R,1.800000X1.800000*%
%ADD22C,1.800000*%
%ADD23R,1.600000X1.600000*%
%ADD24C,1.600000*%
%ADD25RoundRect,0.250000X0.600000X-0.600000X0.600000X0.600000X-0.600000X0.600000X-0.600000X-0.600000X0*%
%ADD26C,1.700000*%
%ADD27R,3.500000X3.500000*%
%ADD28RoundRect,0.750000X0.750000X1.000000X-0.750000X1.000000X-0.750000X-1.000000X0.750000X-1.000000X0*%
%ADD29RoundRect,0.875000X0.875000X0.875000X-0.875000X0.875000X-0.875000X-0.875000X0.875000X-0.875000X0*%
%ADD30RoundRect,0.250000X-0.725000X0.600000X-0.725000X-0.600000X0.725000X-0.600000X0.725000X0.600000X0*%
%ADD31O,1.950000X1.700000*%
%ADD32R,1.050000X1.500000*%
%ADD33O,1.050000X1.500000*%
G04 APERTURE END LIST*
D10*
X81076800Y-165228900D03*
D11*
X81076800Y-170308900D03*
D10*
X81076800Y-134620000D03*
D11*
X81076800Y-139700000D03*
D12*
X108864400Y-172696500D03*
X106324400Y-172696500D03*
X113944400Y-172696500D03*
X111404400Y-172696500D03*
X106324400Y-147296500D03*
D13*
X101244400Y-172696500D03*
D12*
X103784400Y-172696500D03*
D13*
X103784400Y-147296500D03*
D12*
X108864400Y-147296500D03*
X111404400Y-147296500D03*
D14*
X85496400Y-179832000D03*
D15*
X90496400Y-179832000D03*
X95496400Y-179832000D03*
D16*
X88037000Y-134748900D03*
D17*
X88037000Y-133478900D03*
X88037000Y-132208900D03*
D10*
X81076800Y-155041600D03*
D11*
X81076800Y-160121600D03*
D18*
X130149600Y-114225700D03*
X130149600Y-172391700D03*
X127609600Y-114225700D03*
X127609600Y-172391700D03*
X125069600Y-114225700D03*
X125069600Y-172391700D03*
X122529600Y-114225700D03*
X122529600Y-172391700D03*
X117449600Y-114225700D03*
X117449600Y-172391700D03*
X119989600Y-114225700D03*
X119989600Y-172391700D03*
D19*
X87425600Y-165247700D03*
D20*
X87425600Y-167533700D03*
X87425600Y-169819700D03*
D21*
X81076800Y-123291600D03*
D22*
X81076800Y-120751600D03*
D16*
X88032600Y-129059300D03*
D17*
X88032600Y-127789300D03*
X88032600Y-126519300D03*
D23*
X95402400Y-148300251D03*
D24*
X95402400Y-143300251D03*
D13*
X101244400Y-179148100D03*
D12*
X103784400Y-179148100D03*
X106324400Y-179148100D03*
X108864400Y-179148100D03*
D25*
X83362800Y-108332900D03*
D26*
X83362800Y-105792900D03*
X85902800Y-108332900D03*
X85902800Y-105792900D03*
X88442800Y-108332900D03*
X88442800Y-105792900D03*
X90982800Y-108332900D03*
X90982800Y-105792900D03*
X93522800Y-108332900D03*
X93522800Y-105792900D03*
X96062800Y-108332900D03*
X96062800Y-105792900D03*
X98602800Y-108332900D03*
X98602800Y-105792900D03*
X101142800Y-108332900D03*
X101142800Y-105792900D03*
X103682800Y-108332900D03*
X103682800Y-105792900D03*
X106222800Y-108332900D03*
X106222800Y-105792900D03*
X108762800Y-108332900D03*
X108762800Y-105792900D03*
X111302800Y-108332900D03*
X111302800Y-105792900D03*
X113842800Y-108332900D03*
X113842800Y-105792900D03*
X116382800Y-108332900D03*
X116382800Y-105792900D03*
X118922800Y-108332900D03*
X118922800Y-105792900D03*
X121462800Y-108332900D03*
X121462800Y-105792900D03*
X124002800Y-108332900D03*
X124002800Y-105792900D03*
X126542800Y-108332900D03*
X126542800Y-105792900D03*
X129082800Y-108332900D03*
X129082800Y-105792900D03*
X131622800Y-108332900D03*
X131622800Y-105792900D03*
D16*
X88032600Y-123471300D03*
D17*
X88032600Y-122201300D03*
X88032600Y-120931300D03*
D27*
X122981200Y-181680400D03*
D28*
X128981200Y-181680400D03*
D29*
X125981200Y-176980400D03*
D13*
X95758000Y-114784500D03*
D12*
X98298000Y-114784500D03*
X100838000Y-114784500D03*
X103378000Y-114784500D03*
X105918000Y-114784500D03*
X108458000Y-114784500D03*
X110998000Y-114784500D03*
X113538000Y-114784500D03*
D10*
X81076800Y-144830800D03*
D11*
X81076800Y-149910800D03*
D30*
X88849200Y-155121600D03*
D31*
X88849200Y-157621600D03*
X88849200Y-160121600D03*
D32*
X119989600Y-117957600D03*
D33*
X118719600Y-117957600D03*
X117449600Y-117957600D03*
D13*
X81076800Y-129387600D03*
D12*
X81076800Y-126847600D03*
D18*
X103416100Y-130412800D03*
X103416100Y-120252800D03*
X105956100Y-130412800D03*
X111036100Y-130412800D03*
X108496100Y-130412800D03*
X100876100Y-130412800D03*
X98336100Y-130412800D03*
X105956100Y-120252800D03*
X111036100Y-120252800D03*
X108496100Y-120252800D03*
X100876100Y-120252800D03*
X98336100Y-120252800D03*
D13*
X81076800Y-114677900D03*
D12*
X81076800Y-117217900D03*
D30*
X88900000Y-143306800D03*
D31*
X88900000Y-145806800D03*
X88900000Y-148306800D03*
D23*
X95402400Y-160085851D03*
D24*
X95402400Y-155085851D03*
M02*
