%TF.GenerationSoftware,KiCad,Pcbnew,(6.0.9)*%
%TF.CreationDate,2022-11-30T22:11:57-05:00*%
%TF.ProjectId,Roboshot,526f626f-7368-46f7-942e-6b696361645f,rev?*%
%TF.SameCoordinates,Original*%
%TF.FileFunction,Drillmap*%
%TF.FilePolarity,Positive*%
%FSLAX45Y45*%
G04 Gerber Fmt 4.5, Leading zero omitted, Abs format (unit mm)*
G04 Created by KiCad (PCBNEW (6.0.9)) date 2022-11-30 22:11:57*
%MOMM*%
%LPD*%
G01*
G04 APERTURE LIST*
%ADD10C,0.100000*%
%ADD11C,0.200000*%
%ADD12C,0.075000*%
%ADD13C,0.080000*%
%ADD14C,0.090000*%
%ADD15C,0.095000*%
%ADD16C,0.101600*%
%ADD17C,0.110000*%
%ADD18C,0.132000*%
%ADD19C,0.152000*%
G04 APERTURE END LIST*
D10*
X7467600Y-10144760D02*
X13797280Y-10144760D01*
X7990840Y-18394680D02*
G75*
G03*
X7990840Y-18394680I-152400J0D01*
G01*
X13797280Y-18735040D02*
X7467600Y-18745200D01*
X8702040Y-11602720D02*
G75*
G03*
X8702040Y-11602720I-152400J0D01*
G01*
X7467600Y-10144760D02*
X7467600Y-18745200D01*
X13512800Y-14655800D02*
G75*
G03*
X13512800Y-14655800I-152400J0D01*
G01*
X13797280Y-10144760D02*
X13797280Y-18735040D01*
D11*
D12*
X8765760Y-12055630D02*
X8840760Y-12130630D01*
X8840760Y-12055630D02*
X8765760Y-12130630D01*
X8765760Y-12182630D02*
X8840760Y-12257630D01*
X8840760Y-12182630D02*
X8765760Y-12257630D01*
X8765760Y-12309630D02*
X8840760Y-12384630D01*
X8840760Y-12309630D02*
X8765760Y-12384630D01*
X8765760Y-12614430D02*
X8840760Y-12689430D01*
X8840760Y-12614430D02*
X8765760Y-12689430D01*
X8765760Y-12741430D02*
X8840760Y-12816430D01*
X8840760Y-12741430D02*
X8765760Y-12816430D01*
X8765760Y-12868430D02*
X8840760Y-12943430D01*
X8840760Y-12868430D02*
X8765760Y-12943430D01*
X8766200Y-13183390D02*
X8841200Y-13258390D01*
X8841200Y-13183390D02*
X8766200Y-13258390D01*
X8766200Y-13310390D02*
X8841200Y-13385390D01*
X8841200Y-13310390D02*
X8766200Y-13385390D01*
X8766200Y-13437390D02*
X8841200Y-13512390D01*
X8841200Y-13437390D02*
X8766200Y-13512390D01*
X11707460Y-11758260D02*
X11782460Y-11833260D01*
X11782460Y-11758260D02*
X11707460Y-11833260D01*
X11834460Y-11758260D02*
X11909460Y-11833260D01*
X11909460Y-11758260D02*
X11834460Y-11833260D01*
X11961460Y-11758260D02*
X12036460Y-11833260D01*
X12036460Y-11758260D02*
X11961460Y-11833260D01*
D13*
X9580240Y-14330025D02*
G75*
G03*
X9580240Y-14330025I-40000J0D01*
G01*
X9580240Y-14830025D02*
G75*
G03*
X9580240Y-14830025I-40000J0D01*
G01*
X9580240Y-15508585D02*
G75*
G03*
X9580240Y-15508585I-40000J0D01*
G01*
X9580240Y-16008585D02*
G75*
G03*
X9580240Y-16008585I-40000J0D01*
G01*
D14*
X8107680Y-12030160D02*
X8107680Y-12120160D01*
X8062680Y-12075160D02*
X8152680Y-12075160D01*
X8107680Y-12284160D02*
X8107680Y-12374160D01*
X8062680Y-12329160D02*
X8152680Y-12329160D01*
D15*
X8918508Y-15545748D02*
X8918508Y-15478572D01*
X8851332Y-15478572D01*
X8851332Y-15545748D01*
X8918508Y-15545748D01*
X8918508Y-15795748D02*
X8918508Y-15728572D01*
X8851332Y-15728572D01*
X8851332Y-15795748D01*
X8918508Y-15795748D01*
X8918508Y-16045748D02*
X8918508Y-15978572D01*
X8851332Y-15978572D01*
X8851332Y-16045748D01*
X8918508Y-16045748D01*
X8923588Y-14364268D02*
X8923588Y-14297092D01*
X8856412Y-14297092D01*
X8856412Y-14364268D01*
X8923588Y-14364268D01*
X8923588Y-14614268D02*
X8923588Y-14547092D01*
X8856412Y-14547092D01*
X8856412Y-14614268D01*
X8923588Y-14614268D01*
X8923588Y-14864268D02*
X8923588Y-14797092D01*
X8856412Y-14797092D01*
X8856412Y-14864268D01*
X8923588Y-14864268D01*
D10*
X8107680Y-11517790D02*
X8157680Y-11467790D01*
X8107680Y-11417790D01*
X8057680Y-11467790D01*
X8107680Y-11517790D01*
X8107680Y-11771790D02*
X8157680Y-11721790D01*
X8107680Y-11671790D01*
X8057680Y-11721790D01*
X8107680Y-11771790D01*
X8107680Y-12734760D02*
X8157680Y-12684760D01*
X8107680Y-12634760D01*
X8057680Y-12684760D01*
X8107680Y-12734760D01*
X8107680Y-12988760D02*
X8157680Y-12938760D01*
X8107680Y-12888760D01*
X8057680Y-12938760D01*
X8107680Y-12988760D01*
X8336280Y-10629290D02*
X8386280Y-10579290D01*
X8336280Y-10529290D01*
X8286280Y-10579290D01*
X8336280Y-10629290D01*
X8336280Y-10883290D02*
X8386280Y-10833290D01*
X8336280Y-10783290D01*
X8286280Y-10833290D01*
X8336280Y-10883290D01*
X8590280Y-10629290D02*
X8640280Y-10579290D01*
X8590280Y-10529290D01*
X8540280Y-10579290D01*
X8590280Y-10629290D01*
X8590280Y-10883290D02*
X8640280Y-10833290D01*
X8590280Y-10783290D01*
X8540280Y-10833290D01*
X8590280Y-10883290D01*
X8844280Y-10629290D02*
X8894280Y-10579290D01*
X8844280Y-10529290D01*
X8794280Y-10579290D01*
X8844280Y-10629290D01*
X8844280Y-10883290D02*
X8894280Y-10833290D01*
X8844280Y-10783290D01*
X8794280Y-10833290D01*
X8844280Y-10883290D01*
X9098280Y-10629290D02*
X9148280Y-10579290D01*
X9098280Y-10529290D01*
X9048280Y-10579290D01*
X9098280Y-10629290D01*
X9098280Y-10883290D02*
X9148280Y-10833290D01*
X9098280Y-10783290D01*
X9048280Y-10833290D01*
X9098280Y-10883290D01*
X9352280Y-10629290D02*
X9402280Y-10579290D01*
X9352280Y-10529290D01*
X9302280Y-10579290D01*
X9352280Y-10629290D01*
X9352280Y-10883290D02*
X9402280Y-10833290D01*
X9352280Y-10783290D01*
X9302280Y-10833290D01*
X9352280Y-10883290D01*
X9575800Y-11528450D02*
X9625800Y-11478450D01*
X9575800Y-11428450D01*
X9525800Y-11478450D01*
X9575800Y-11528450D01*
X9606280Y-10629290D02*
X9656280Y-10579290D01*
X9606280Y-10529290D01*
X9556280Y-10579290D01*
X9606280Y-10629290D01*
X9606280Y-10883290D02*
X9656280Y-10833290D01*
X9606280Y-10783290D01*
X9556280Y-10833290D01*
X9606280Y-10883290D01*
X9829800Y-11528450D02*
X9879800Y-11478450D01*
X9829800Y-11428450D01*
X9779800Y-11478450D01*
X9829800Y-11528450D01*
X9860280Y-10629290D02*
X9910280Y-10579290D01*
X9860280Y-10529290D01*
X9810280Y-10579290D01*
X9860280Y-10629290D01*
X9860280Y-10883290D02*
X9910280Y-10833290D01*
X9860280Y-10783290D01*
X9810280Y-10833290D01*
X9860280Y-10883290D01*
X10083800Y-11528450D02*
X10133800Y-11478450D01*
X10083800Y-11428450D01*
X10033800Y-11478450D01*
X10083800Y-11528450D01*
X10114280Y-10629290D02*
X10164280Y-10579290D01*
X10114280Y-10529290D01*
X10064280Y-10579290D01*
X10114280Y-10629290D01*
X10114280Y-10883290D02*
X10164280Y-10833290D01*
X10114280Y-10783290D01*
X10064280Y-10833290D01*
X10114280Y-10883290D01*
X10124440Y-17319650D02*
X10174440Y-17269650D01*
X10124440Y-17219650D01*
X10074440Y-17269650D01*
X10124440Y-17319650D01*
X10124440Y-17964810D02*
X10174440Y-17914810D01*
X10124440Y-17864810D01*
X10074440Y-17914810D01*
X10124440Y-17964810D01*
X10337800Y-11528450D02*
X10387800Y-11478450D01*
X10337800Y-11428450D01*
X10287800Y-11478450D01*
X10337800Y-11528450D01*
X10368280Y-10629290D02*
X10418280Y-10579290D01*
X10368280Y-10529290D01*
X10318280Y-10579290D01*
X10368280Y-10629290D01*
X10368280Y-10883290D02*
X10418280Y-10833290D01*
X10368280Y-10783290D01*
X10318280Y-10833290D01*
X10368280Y-10883290D01*
X10378440Y-14779650D02*
X10428440Y-14729650D01*
X10378440Y-14679650D01*
X10328440Y-14729650D01*
X10378440Y-14779650D01*
X10378440Y-17319650D02*
X10428440Y-17269650D01*
X10378440Y-17219650D01*
X10328440Y-17269650D01*
X10378440Y-17319650D01*
X10378440Y-17964810D02*
X10428440Y-17914810D01*
X10378440Y-17864810D01*
X10328440Y-17914810D01*
X10378440Y-17964810D01*
X10591800Y-11528450D02*
X10641800Y-11478450D01*
X10591800Y-11428450D01*
X10541800Y-11478450D01*
X10591800Y-11528450D01*
X10622280Y-10629290D02*
X10672280Y-10579290D01*
X10622280Y-10529290D01*
X10572280Y-10579290D01*
X10622280Y-10629290D01*
X10622280Y-10883290D02*
X10672280Y-10833290D01*
X10622280Y-10783290D01*
X10572280Y-10833290D01*
X10622280Y-10883290D01*
X10632440Y-14779650D02*
X10682440Y-14729650D01*
X10632440Y-14679650D01*
X10582440Y-14729650D01*
X10632440Y-14779650D01*
X10632440Y-17319650D02*
X10682440Y-17269650D01*
X10632440Y-17219650D01*
X10582440Y-17269650D01*
X10632440Y-17319650D01*
X10632440Y-17964810D02*
X10682440Y-17914810D01*
X10632440Y-17864810D01*
X10582440Y-17914810D01*
X10632440Y-17964810D01*
X10845800Y-11528450D02*
X10895800Y-11478450D01*
X10845800Y-11428450D01*
X10795800Y-11478450D01*
X10845800Y-11528450D01*
X10876280Y-10629290D02*
X10926280Y-10579290D01*
X10876280Y-10529290D01*
X10826280Y-10579290D01*
X10876280Y-10629290D01*
X10876280Y-10883290D02*
X10926280Y-10833290D01*
X10876280Y-10783290D01*
X10826280Y-10833290D01*
X10876280Y-10883290D01*
X10886440Y-14779650D02*
X10936440Y-14729650D01*
X10886440Y-14679650D01*
X10836440Y-14729650D01*
X10886440Y-14779650D01*
X10886440Y-17319650D02*
X10936440Y-17269650D01*
X10886440Y-17219650D01*
X10836440Y-17269650D01*
X10886440Y-17319650D01*
X10886440Y-17964810D02*
X10936440Y-17914810D01*
X10886440Y-17864810D01*
X10836440Y-17914810D01*
X10886440Y-17964810D01*
X11099800Y-11528450D02*
X11149800Y-11478450D01*
X11099800Y-11428450D01*
X11049800Y-11478450D01*
X11099800Y-11528450D01*
X11130280Y-10629290D02*
X11180280Y-10579290D01*
X11130280Y-10529290D01*
X11080280Y-10579290D01*
X11130280Y-10629290D01*
X11130280Y-10883290D02*
X11180280Y-10833290D01*
X11130280Y-10783290D01*
X11080280Y-10833290D01*
X11130280Y-10883290D01*
X11140440Y-14779650D02*
X11190440Y-14729650D01*
X11140440Y-14679650D01*
X11090440Y-14729650D01*
X11140440Y-14779650D01*
X11140440Y-17319650D02*
X11190440Y-17269650D01*
X11140440Y-17219650D01*
X11090440Y-17269650D01*
X11140440Y-17319650D01*
X11353800Y-11528450D02*
X11403800Y-11478450D01*
X11353800Y-11428450D01*
X11303800Y-11478450D01*
X11353800Y-11528450D01*
X11384280Y-10629290D02*
X11434280Y-10579290D01*
X11384280Y-10529290D01*
X11334280Y-10579290D01*
X11384280Y-10629290D01*
X11384280Y-10883290D02*
X11434280Y-10833290D01*
X11384280Y-10783290D01*
X11334280Y-10833290D01*
X11384280Y-10883290D01*
X11394440Y-17319650D02*
X11444440Y-17269650D01*
X11394440Y-17219650D01*
X11344440Y-17269650D01*
X11394440Y-17319650D01*
X11638280Y-10629290D02*
X11688280Y-10579290D01*
X11638280Y-10529290D01*
X11588280Y-10579290D01*
X11638280Y-10629290D01*
X11638280Y-10883290D02*
X11688280Y-10833290D01*
X11638280Y-10783290D01*
X11588280Y-10833290D01*
X11638280Y-10883290D01*
X11892280Y-10629290D02*
X11942280Y-10579290D01*
X11892280Y-10529290D01*
X11842280Y-10579290D01*
X11892280Y-10629290D01*
X11892280Y-10883290D02*
X11942280Y-10833290D01*
X11892280Y-10783290D01*
X11842280Y-10833290D01*
X11892280Y-10883290D01*
X12146280Y-10629290D02*
X12196280Y-10579290D01*
X12146280Y-10529290D01*
X12096280Y-10579290D01*
X12146280Y-10629290D01*
X12146280Y-10883290D02*
X12196280Y-10833290D01*
X12146280Y-10783290D01*
X12096280Y-10833290D01*
X12146280Y-10883290D01*
X12298120Y-18218040D02*
X12348120Y-18168040D01*
X12298120Y-18118040D01*
X12248120Y-18168040D01*
X12298120Y-18218040D01*
D11*
X12348120Y-18268040D02*
X12348120Y-18068040D01*
X12248120Y-18268040D02*
X12248120Y-18068040D01*
X12348120Y-18068040D02*
G75*
G03*
X12248120Y-18068040I-50000J0D01*
G01*
X12248120Y-18268040D02*
G75*
G03*
X12348120Y-18268040I50000J0D01*
G01*
D10*
X12400280Y-10629290D02*
X12450280Y-10579290D01*
X12400280Y-10529290D01*
X12350280Y-10579290D01*
X12400280Y-10629290D01*
X12400280Y-10883290D02*
X12450280Y-10833290D01*
X12400280Y-10783290D01*
X12350280Y-10833290D01*
X12400280Y-10883290D01*
X12598120Y-17748040D02*
X12648120Y-17698040D01*
X12598120Y-17648040D01*
X12548120Y-17698040D01*
X12598120Y-17748040D01*
D11*
X12698120Y-17648040D02*
X12498120Y-17648040D01*
X12698120Y-17748040D02*
X12498120Y-17748040D01*
X12498120Y-17648040D02*
G75*
G03*
X12498120Y-17748040I0J-50000D01*
G01*
X12698120Y-17748040D02*
G75*
G03*
X12698120Y-17648040I0J50000D01*
G01*
D10*
X12654280Y-10629290D02*
X12704280Y-10579290D01*
X12654280Y-10529290D01*
X12604280Y-10579290D01*
X12654280Y-10629290D01*
X12654280Y-10883290D02*
X12704280Y-10833290D01*
X12654280Y-10783290D01*
X12604280Y-10833290D01*
X12654280Y-10883290D01*
X12898120Y-18218040D02*
X12948120Y-18168040D01*
X12898120Y-18118040D01*
X12848120Y-18168040D01*
X12898120Y-18218040D01*
D11*
X12948120Y-18268040D02*
X12948120Y-18068040D01*
X12848120Y-18268040D02*
X12848120Y-18068040D01*
X12948120Y-18068040D02*
G75*
G03*
X12848120Y-18068040I-50000J0D01*
G01*
X12848120Y-18268040D02*
G75*
G03*
X12948120Y-18268040I50000J0D01*
G01*
D10*
X12908280Y-10629290D02*
X12958280Y-10579290D01*
X12908280Y-10529290D01*
X12858280Y-10579290D01*
X12908280Y-10629290D01*
X12908280Y-10883290D02*
X12958280Y-10833290D01*
X12908280Y-10783290D01*
X12858280Y-10833290D01*
X12908280Y-10883290D01*
X13162280Y-10629290D02*
X13212280Y-10579290D01*
X13162280Y-10529290D01*
X13112280Y-10579290D01*
X13162280Y-10629290D01*
X13162280Y-10883290D02*
X13212280Y-10833290D01*
X13162280Y-10783290D01*
X13112280Y-10833290D01*
X13162280Y-10883290D01*
D16*
X9782810Y-11974480D02*
X9884410Y-12076080D01*
X9884410Y-11974480D02*
X9782810Y-12076080D01*
X9884410Y-12025280D02*
G75*
G03*
X9884410Y-12025280I-50800J0D01*
G01*
X9782810Y-12990480D02*
X9884410Y-13092080D01*
X9884410Y-12990480D02*
X9782810Y-13092080D01*
X9884410Y-13041280D02*
G75*
G03*
X9884410Y-13041280I-50800J0D01*
G01*
X10036810Y-11974480D02*
X10138410Y-12076080D01*
X10138410Y-11974480D02*
X10036810Y-12076080D01*
X10138410Y-12025280D02*
G75*
G03*
X10138410Y-12025280I-50800J0D01*
G01*
X10036810Y-12990480D02*
X10138410Y-13092080D01*
X10138410Y-12990480D02*
X10036810Y-13092080D01*
X10138410Y-13041280D02*
G75*
G03*
X10138410Y-13041280I-50800J0D01*
G01*
X10290810Y-11974480D02*
X10392410Y-12076080D01*
X10392410Y-11974480D02*
X10290810Y-12076080D01*
X10392410Y-12025280D02*
G75*
G03*
X10392410Y-12025280I-50800J0D01*
G01*
X10290810Y-12990480D02*
X10392410Y-13092080D01*
X10392410Y-12990480D02*
X10290810Y-13092080D01*
X10392410Y-13041280D02*
G75*
G03*
X10392410Y-13041280I-50800J0D01*
G01*
X10544810Y-11974480D02*
X10646410Y-12076080D01*
X10646410Y-11974480D02*
X10544810Y-12076080D01*
X10646410Y-12025280D02*
G75*
G03*
X10646410Y-12025280I-50800J0D01*
G01*
X10544810Y-12990480D02*
X10646410Y-13092080D01*
X10646410Y-12990480D02*
X10544810Y-13092080D01*
X10646410Y-13041280D02*
G75*
G03*
X10646410Y-13041280I-50800J0D01*
G01*
X10798810Y-11974480D02*
X10900410Y-12076080D01*
X10900410Y-11974480D02*
X10798810Y-12076080D01*
X10900410Y-12025280D02*
G75*
G03*
X10900410Y-12025280I-50800J0D01*
G01*
X10798810Y-12990480D02*
X10900410Y-13092080D01*
X10900410Y-12990480D02*
X10798810Y-13092080D01*
X10900410Y-13041280D02*
G75*
G03*
X10900410Y-13041280I-50800J0D01*
G01*
X11052810Y-11974480D02*
X11154410Y-12076080D01*
X11154410Y-11974480D02*
X11052810Y-12076080D01*
X11154410Y-12025280D02*
G75*
G03*
X11154410Y-12025280I-50800J0D01*
G01*
X11052810Y-12990480D02*
X11154410Y-13092080D01*
X11154410Y-12990480D02*
X11052810Y-13092080D01*
X11154410Y-13041280D02*
G75*
G03*
X11154410Y-13041280I-50800J0D01*
G01*
X11694160Y-11371770D02*
X11795760Y-11473370D01*
X11795760Y-11371770D02*
X11694160Y-11473370D01*
X11795760Y-11422570D02*
G75*
G03*
X11795760Y-11422570I-50800J0D01*
G01*
X11694160Y-17188370D02*
X11795760Y-17289970D01*
X11795760Y-17188370D02*
X11694160Y-17289970D01*
X11795760Y-17239170D02*
G75*
G03*
X11795760Y-17239170I-50800J0D01*
G01*
X11948160Y-11371770D02*
X12049760Y-11473370D01*
X12049760Y-11371770D02*
X11948160Y-11473370D01*
X12049760Y-11422570D02*
G75*
G03*
X12049760Y-11422570I-50800J0D01*
G01*
X11948160Y-17188370D02*
X12049760Y-17289970D01*
X12049760Y-17188370D02*
X11948160Y-17289970D01*
X12049760Y-17239170D02*
G75*
G03*
X12049760Y-17239170I-50800J0D01*
G01*
X12202160Y-11371770D02*
X12303760Y-11473370D01*
X12303760Y-11371770D02*
X12202160Y-11473370D01*
X12303760Y-11422570D02*
G75*
G03*
X12303760Y-11422570I-50800J0D01*
G01*
X12202160Y-17188370D02*
X12303760Y-17289970D01*
X12303760Y-17188370D02*
X12202160Y-17289970D01*
X12303760Y-17239170D02*
G75*
G03*
X12303760Y-17239170I-50800J0D01*
G01*
X12456160Y-11371770D02*
X12557760Y-11473370D01*
X12557760Y-11371770D02*
X12456160Y-11473370D01*
X12557760Y-11422570D02*
G75*
G03*
X12557760Y-11422570I-50800J0D01*
G01*
X12456160Y-17188370D02*
X12557760Y-17289970D01*
X12557760Y-17188370D02*
X12456160Y-17289970D01*
X12557760Y-17239170D02*
G75*
G03*
X12557760Y-17239170I-50800J0D01*
G01*
X12710160Y-11371770D02*
X12811760Y-11473370D01*
X12811760Y-11371770D02*
X12710160Y-11473370D01*
X12811760Y-11422570D02*
G75*
G03*
X12811760Y-11422570I-50800J0D01*
G01*
X12710160Y-17188370D02*
X12811760Y-17289970D01*
X12811760Y-17188370D02*
X12710160Y-17289970D01*
X12811760Y-17239170D02*
G75*
G03*
X12811760Y-17239170I-50800J0D01*
G01*
X12964160Y-11371770D02*
X13065760Y-11473370D01*
X13065760Y-11371770D02*
X12964160Y-11473370D01*
X13065760Y-11422570D02*
G75*
G03*
X13065760Y-11422570I-50800J0D01*
G01*
X12964160Y-17188370D02*
X13065760Y-17289970D01*
X13065760Y-17188370D02*
X12964160Y-17289970D01*
X13065760Y-17239170D02*
G75*
G03*
X13065760Y-17239170I-50800J0D01*
G01*
D17*
X8687560Y-16469770D02*
X8797560Y-16579770D01*
X8797560Y-16469770D02*
X8687560Y-16579770D01*
X8742560Y-16469770D02*
X8742560Y-16579770D01*
X8687560Y-16524770D02*
X8797560Y-16524770D01*
X8687560Y-16698370D02*
X8797560Y-16808370D01*
X8797560Y-16698370D02*
X8687560Y-16808370D01*
X8742560Y-16698370D02*
X8742560Y-16808370D01*
X8687560Y-16753370D02*
X8797560Y-16753370D01*
X8687560Y-16926970D02*
X8797560Y-17036970D01*
X8797560Y-16926970D02*
X8687560Y-17036970D01*
X8742560Y-16926970D02*
X8742560Y-17036970D01*
X8687560Y-16981970D02*
X8797560Y-16981970D01*
D18*
X8483640Y-17917200D02*
X8615640Y-18049200D01*
X8615640Y-17917200D02*
X8483640Y-18049200D01*
X8596310Y-18029870D02*
X8596310Y-17936531D01*
X8502971Y-17936531D01*
X8502971Y-18029870D01*
X8596310Y-18029870D01*
X8983640Y-17917200D02*
X9115640Y-18049200D01*
X9115640Y-17917200D02*
X8983640Y-18049200D01*
X9096310Y-18029870D02*
X9096310Y-17936531D01*
X9002971Y-17936531D01*
X9002971Y-18029870D01*
X9096310Y-18029870D01*
X9483640Y-17917200D02*
X9615640Y-18049200D01*
X9615640Y-17917200D02*
X9483640Y-18049200D01*
X9596310Y-18029870D02*
X9596310Y-17936531D01*
X9502971Y-17936531D01*
X9502971Y-18029870D01*
X9596310Y-18029870D01*
D19*
X8031680Y-13386000D02*
X8183680Y-13538000D01*
X8183680Y-13386000D02*
X8031680Y-13538000D01*
X8107680Y-13538000D02*
X8183680Y-13462000D01*
X8107680Y-13386000D01*
X8031680Y-13462000D01*
X8107680Y-13538000D01*
X8031680Y-13894000D02*
X8183680Y-14046000D01*
X8183680Y-13894000D02*
X8031680Y-14046000D01*
X8107680Y-14046000D02*
X8183680Y-13970000D01*
X8107680Y-13894000D01*
X8031680Y-13970000D01*
X8107680Y-14046000D01*
X8031680Y-14407080D02*
X8183680Y-14559080D01*
X8183680Y-14407080D02*
X8031680Y-14559080D01*
X8107680Y-14559080D02*
X8183680Y-14483080D01*
X8107680Y-14407080D01*
X8031680Y-14483080D01*
X8107680Y-14559080D01*
X8031680Y-14915080D02*
X8183680Y-15067080D01*
X8183680Y-14915080D02*
X8031680Y-15067080D01*
X8107680Y-15067080D02*
X8183680Y-14991080D01*
X8107680Y-14915080D01*
X8031680Y-14991080D01*
X8107680Y-15067080D01*
X8031680Y-15428160D02*
X8183680Y-15580160D01*
X8183680Y-15428160D02*
X8031680Y-15580160D01*
X8107680Y-15580160D02*
X8183680Y-15504160D01*
X8107680Y-15428160D01*
X8031680Y-15504160D01*
X8107680Y-15580160D01*
X8031680Y-15936160D02*
X8183680Y-16088160D01*
X8183680Y-15936160D02*
X8031680Y-16088160D01*
X8107680Y-16088160D02*
X8183680Y-16012160D01*
X8107680Y-15936160D01*
X8031680Y-16012160D01*
X8107680Y-16088160D01*
X8031680Y-16446890D02*
X8183680Y-16598890D01*
X8183680Y-16446890D02*
X8031680Y-16598890D01*
X8107680Y-16598890D02*
X8183680Y-16522890D01*
X8107680Y-16446890D01*
X8031680Y-16522890D01*
X8107680Y-16598890D01*
X8031680Y-16954890D02*
X8183680Y-17106890D01*
X8183680Y-16954890D02*
X8031680Y-17106890D01*
X8107680Y-17106890D02*
X8183680Y-17030890D01*
X8107680Y-16954890D01*
X8031680Y-17030890D01*
X8107680Y-17106890D01*
D11*
X7720219Y-19060676D02*
X7720219Y-18860676D01*
X7767838Y-18860676D01*
X7796409Y-18870200D01*
X7815457Y-18889248D01*
X7824981Y-18908295D01*
X7834505Y-18946390D01*
X7834505Y-18974962D01*
X7824981Y-19013057D01*
X7815457Y-19032105D01*
X7796409Y-19051152D01*
X7767838Y-19060676D01*
X7720219Y-19060676D01*
X7920219Y-19060676D02*
X7920219Y-18927343D01*
X7920219Y-18965438D02*
X7929743Y-18946390D01*
X7939267Y-18936867D01*
X7958314Y-18927343D01*
X7977362Y-18927343D01*
X8044028Y-19060676D02*
X8044028Y-18927343D01*
X8044028Y-18860676D02*
X8034505Y-18870200D01*
X8044028Y-18879724D01*
X8053552Y-18870200D01*
X8044028Y-18860676D01*
X8044028Y-18879724D01*
X8167838Y-19060676D02*
X8148790Y-19051152D01*
X8139267Y-19032105D01*
X8139267Y-18860676D01*
X8272600Y-19060676D02*
X8253552Y-19051152D01*
X8244028Y-19032105D01*
X8244028Y-18860676D01*
X8501171Y-19060676D02*
X8501171Y-18860676D01*
X8567838Y-19003533D01*
X8634505Y-18860676D01*
X8634505Y-19060676D01*
X8815457Y-19060676D02*
X8815457Y-18955914D01*
X8805933Y-18936867D01*
X8786886Y-18927343D01*
X8748790Y-18927343D01*
X8729743Y-18936867D01*
X8815457Y-19051152D02*
X8796410Y-19060676D01*
X8748790Y-19060676D01*
X8729743Y-19051152D01*
X8720219Y-19032105D01*
X8720219Y-19013057D01*
X8729743Y-18994010D01*
X8748790Y-18984486D01*
X8796410Y-18984486D01*
X8815457Y-18974962D01*
X8910695Y-18927343D02*
X8910695Y-19127343D01*
X8910695Y-18936867D02*
X8929743Y-18927343D01*
X8967838Y-18927343D01*
X8986886Y-18936867D01*
X8996410Y-18946390D01*
X9005933Y-18965438D01*
X9005933Y-19022581D01*
X8996410Y-19041629D01*
X8986886Y-19051152D01*
X8967838Y-19060676D01*
X8929743Y-19060676D01*
X8910695Y-19051152D01*
X9091648Y-19041629D02*
X9101171Y-19051152D01*
X9091648Y-19060676D01*
X9082124Y-19051152D01*
X9091648Y-19041629D01*
X9091648Y-19060676D01*
X9091648Y-18936867D02*
X9101171Y-18946390D01*
X9091648Y-18955914D01*
X9082124Y-18946390D01*
X9091648Y-18936867D01*
X9091648Y-18955914D01*
D12*
X7387600Y-19352700D02*
X7462600Y-19427700D01*
X7462600Y-19352700D02*
X7387600Y-19427700D01*
D11*
X7758314Y-19280676D02*
X7777362Y-19280676D01*
X7796409Y-19290200D01*
X7805933Y-19299724D01*
X7815457Y-19318771D01*
X7824981Y-19356867D01*
X7824981Y-19404486D01*
X7815457Y-19442581D01*
X7805933Y-19461629D01*
X7796409Y-19471152D01*
X7777362Y-19480676D01*
X7758314Y-19480676D01*
X7739267Y-19471152D01*
X7729743Y-19461629D01*
X7720219Y-19442581D01*
X7710695Y-19404486D01*
X7710695Y-19356867D01*
X7720219Y-19318771D01*
X7729743Y-19299724D01*
X7739267Y-19290200D01*
X7758314Y-19280676D01*
X7910695Y-19461629D02*
X7920219Y-19471152D01*
X7910695Y-19480676D01*
X7901171Y-19471152D01*
X7910695Y-19461629D01*
X7910695Y-19480676D01*
X7986886Y-19280676D02*
X8120219Y-19280676D01*
X8034505Y-19480676D01*
X8291648Y-19280676D02*
X8196409Y-19280676D01*
X8186886Y-19375914D01*
X8196409Y-19366390D01*
X8215457Y-19356867D01*
X8263076Y-19356867D01*
X8282124Y-19366390D01*
X8291648Y-19375914D01*
X8301171Y-19394962D01*
X8301171Y-19442581D01*
X8291648Y-19461629D01*
X8282124Y-19471152D01*
X8263076Y-19480676D01*
X8215457Y-19480676D01*
X8196409Y-19471152D01*
X8186886Y-19461629D01*
X8424981Y-19280676D02*
X8444029Y-19280676D01*
X8463076Y-19290200D01*
X8472600Y-19299724D01*
X8482124Y-19318771D01*
X8491648Y-19356867D01*
X8491648Y-19404486D01*
X8482124Y-19442581D01*
X8472600Y-19461629D01*
X8463076Y-19471152D01*
X8444029Y-19480676D01*
X8424981Y-19480676D01*
X8405933Y-19471152D01*
X8396410Y-19461629D01*
X8386886Y-19442581D01*
X8377362Y-19404486D01*
X8377362Y-19356867D01*
X8386886Y-19318771D01*
X8396410Y-19299724D01*
X8405933Y-19290200D01*
X8424981Y-19280676D01*
X8577362Y-19480676D02*
X8577362Y-19347343D01*
X8577362Y-19366390D02*
X8586886Y-19356867D01*
X8605933Y-19347343D01*
X8634505Y-19347343D01*
X8653552Y-19356867D01*
X8663076Y-19375914D01*
X8663076Y-19480676D01*
X8663076Y-19375914D02*
X8672600Y-19356867D01*
X8691648Y-19347343D01*
X8720219Y-19347343D01*
X8739267Y-19356867D01*
X8748790Y-19375914D01*
X8748790Y-19480676D01*
X8844029Y-19480676D02*
X8844029Y-19347343D01*
X8844029Y-19366390D02*
X8853552Y-19356867D01*
X8872600Y-19347343D01*
X8901171Y-19347343D01*
X8920219Y-19356867D01*
X8929743Y-19375914D01*
X8929743Y-19480676D01*
X8929743Y-19375914D02*
X8939267Y-19356867D01*
X8958314Y-19347343D01*
X8986886Y-19347343D01*
X9005933Y-19356867D01*
X9015457Y-19375914D01*
X9015457Y-19480676D01*
X9405933Y-19271152D02*
X9234505Y-19528295D01*
X9663076Y-19280676D02*
X9682124Y-19280676D01*
X9701171Y-19290200D01*
X9710695Y-19299724D01*
X9720219Y-19318771D01*
X9729743Y-19356867D01*
X9729743Y-19404486D01*
X9720219Y-19442581D01*
X9710695Y-19461629D01*
X9701171Y-19471152D01*
X9682124Y-19480676D01*
X9663076Y-19480676D01*
X9644029Y-19471152D01*
X9634505Y-19461629D01*
X9624981Y-19442581D01*
X9615457Y-19404486D01*
X9615457Y-19356867D01*
X9624981Y-19318771D01*
X9634505Y-19299724D01*
X9644029Y-19290200D01*
X9663076Y-19280676D01*
X9815457Y-19461629D02*
X9824981Y-19471152D01*
X9815457Y-19480676D01*
X9805933Y-19471152D01*
X9815457Y-19461629D01*
X9815457Y-19480676D01*
X9948790Y-19280676D02*
X9967838Y-19280676D01*
X9986886Y-19290200D01*
X9996410Y-19299724D01*
X10005933Y-19318771D01*
X10015457Y-19356867D01*
X10015457Y-19404486D01*
X10005933Y-19442581D01*
X9996410Y-19461629D01*
X9986886Y-19471152D01*
X9967838Y-19480676D01*
X9948790Y-19480676D01*
X9929743Y-19471152D01*
X9920219Y-19461629D01*
X9910695Y-19442581D01*
X9901171Y-19404486D01*
X9901171Y-19356867D01*
X9910695Y-19318771D01*
X9920219Y-19299724D01*
X9929743Y-19290200D01*
X9948790Y-19280676D01*
X10091648Y-19299724D02*
X10101171Y-19290200D01*
X10120219Y-19280676D01*
X10167838Y-19280676D01*
X10186886Y-19290200D01*
X10196410Y-19299724D01*
X10205933Y-19318771D01*
X10205933Y-19337819D01*
X10196410Y-19366390D01*
X10082124Y-19480676D01*
X10205933Y-19480676D01*
X10301171Y-19480676D02*
X10339267Y-19480676D01*
X10358314Y-19471152D01*
X10367838Y-19461629D01*
X10386886Y-19433057D01*
X10396410Y-19394962D01*
X10396410Y-19318771D01*
X10386886Y-19299724D01*
X10377362Y-19290200D01*
X10358314Y-19280676D01*
X10320219Y-19280676D01*
X10301171Y-19290200D01*
X10291648Y-19299724D01*
X10282124Y-19318771D01*
X10282124Y-19366390D01*
X10291648Y-19385438D01*
X10301171Y-19394962D01*
X10320219Y-19404486D01*
X10358314Y-19404486D01*
X10377362Y-19394962D01*
X10386886Y-19385438D01*
X10396410Y-19366390D01*
X10577362Y-19280676D02*
X10482124Y-19280676D01*
X10472600Y-19375914D01*
X10482124Y-19366390D01*
X10501171Y-19356867D01*
X10548790Y-19356867D01*
X10567838Y-19366390D01*
X10577362Y-19375914D01*
X10586886Y-19394962D01*
X10586886Y-19442581D01*
X10577362Y-19461629D01*
X10567838Y-19471152D01*
X10548790Y-19480676D01*
X10501171Y-19480676D01*
X10482124Y-19471152D01*
X10472600Y-19461629D01*
X10663076Y-19280676D02*
X10663076Y-19318771D01*
X10739267Y-19280676D02*
X10739267Y-19318771D01*
X11034505Y-19556867D02*
X11024981Y-19547343D01*
X11005933Y-19518771D01*
X10996410Y-19499724D01*
X10986886Y-19471152D01*
X10977362Y-19423533D01*
X10977362Y-19385438D01*
X10986886Y-19337819D01*
X10996410Y-19309248D01*
X11005933Y-19290200D01*
X11024981Y-19261629D01*
X11034505Y-19252105D01*
X11215457Y-19480676D02*
X11101171Y-19480676D01*
X11158314Y-19480676D02*
X11158314Y-19280676D01*
X11139267Y-19309248D01*
X11120219Y-19328295D01*
X11101171Y-19337819D01*
X11291648Y-19299724D02*
X11301171Y-19290200D01*
X11320219Y-19280676D01*
X11367838Y-19280676D01*
X11386886Y-19290200D01*
X11396409Y-19299724D01*
X11405933Y-19318771D01*
X11405933Y-19337819D01*
X11396409Y-19366390D01*
X11282124Y-19480676D01*
X11405933Y-19480676D01*
X11644028Y-19480676D02*
X11644028Y-19280676D01*
X11729743Y-19480676D02*
X11729743Y-19375914D01*
X11720219Y-19356867D01*
X11701171Y-19347343D01*
X11672600Y-19347343D01*
X11653552Y-19356867D01*
X11644028Y-19366390D01*
X11853552Y-19480676D02*
X11834505Y-19471152D01*
X11824981Y-19461629D01*
X11815457Y-19442581D01*
X11815457Y-19385438D01*
X11824981Y-19366390D01*
X11834505Y-19356867D01*
X11853552Y-19347343D01*
X11882124Y-19347343D01*
X11901171Y-19356867D01*
X11910695Y-19366390D01*
X11920219Y-19385438D01*
X11920219Y-19442581D01*
X11910695Y-19461629D01*
X11901171Y-19471152D01*
X11882124Y-19480676D01*
X11853552Y-19480676D01*
X12034505Y-19480676D02*
X12015457Y-19471152D01*
X12005933Y-19452105D01*
X12005933Y-19280676D01*
X12186886Y-19471152D02*
X12167838Y-19480676D01*
X12129743Y-19480676D01*
X12110695Y-19471152D01*
X12101171Y-19452105D01*
X12101171Y-19375914D01*
X12110695Y-19356867D01*
X12129743Y-19347343D01*
X12167838Y-19347343D01*
X12186886Y-19356867D01*
X12196409Y-19375914D01*
X12196409Y-19394962D01*
X12101171Y-19414010D01*
X12272600Y-19471152D02*
X12291648Y-19480676D01*
X12329743Y-19480676D01*
X12348790Y-19471152D01*
X12358314Y-19452105D01*
X12358314Y-19442581D01*
X12348790Y-19423533D01*
X12329743Y-19414010D01*
X12301171Y-19414010D01*
X12282124Y-19404486D01*
X12272600Y-19385438D01*
X12272600Y-19375914D01*
X12282124Y-19356867D01*
X12301171Y-19347343D01*
X12329743Y-19347343D01*
X12348790Y-19356867D01*
X12424981Y-19556867D02*
X12434505Y-19547343D01*
X12453552Y-19518771D01*
X12463076Y-19499724D01*
X12472600Y-19471152D01*
X12482124Y-19423533D01*
X12482124Y-19385438D01*
X12472600Y-19337819D01*
X12463076Y-19309248D01*
X12453552Y-19290200D01*
X12434505Y-19261629D01*
X12424981Y-19252105D01*
D13*
X7462600Y-19654200D02*
G75*
G03*
X7462600Y-19654200I-40000J0D01*
G01*
D11*
X7758314Y-19544676D02*
X7777362Y-19544676D01*
X7796409Y-19554200D01*
X7805933Y-19563724D01*
X7815457Y-19582771D01*
X7824981Y-19620867D01*
X7824981Y-19668486D01*
X7815457Y-19706581D01*
X7805933Y-19725629D01*
X7796409Y-19735152D01*
X7777362Y-19744676D01*
X7758314Y-19744676D01*
X7739267Y-19735152D01*
X7729743Y-19725629D01*
X7720219Y-19706581D01*
X7710695Y-19668486D01*
X7710695Y-19620867D01*
X7720219Y-19582771D01*
X7729743Y-19563724D01*
X7739267Y-19554200D01*
X7758314Y-19544676D01*
X7910695Y-19725629D02*
X7920219Y-19735152D01*
X7910695Y-19744676D01*
X7901171Y-19735152D01*
X7910695Y-19725629D01*
X7910695Y-19744676D01*
X8034505Y-19630390D02*
X8015457Y-19620867D01*
X8005933Y-19611343D01*
X7996409Y-19592295D01*
X7996409Y-19582771D01*
X8005933Y-19563724D01*
X8015457Y-19554200D01*
X8034505Y-19544676D01*
X8072600Y-19544676D01*
X8091648Y-19554200D01*
X8101171Y-19563724D01*
X8110695Y-19582771D01*
X8110695Y-19592295D01*
X8101171Y-19611343D01*
X8091648Y-19620867D01*
X8072600Y-19630390D01*
X8034505Y-19630390D01*
X8015457Y-19639914D01*
X8005933Y-19649438D01*
X7996409Y-19668486D01*
X7996409Y-19706581D01*
X8005933Y-19725629D01*
X8015457Y-19735152D01*
X8034505Y-19744676D01*
X8072600Y-19744676D01*
X8091648Y-19735152D01*
X8101171Y-19725629D01*
X8110695Y-19706581D01*
X8110695Y-19668486D01*
X8101171Y-19649438D01*
X8091648Y-19639914D01*
X8072600Y-19630390D01*
X8234505Y-19544676D02*
X8253552Y-19544676D01*
X8272600Y-19554200D01*
X8282124Y-19563724D01*
X8291648Y-19582771D01*
X8301171Y-19620867D01*
X8301171Y-19668486D01*
X8291648Y-19706581D01*
X8282124Y-19725629D01*
X8272600Y-19735152D01*
X8253552Y-19744676D01*
X8234505Y-19744676D01*
X8215457Y-19735152D01*
X8205933Y-19725629D01*
X8196409Y-19706581D01*
X8186886Y-19668486D01*
X8186886Y-19620867D01*
X8196409Y-19582771D01*
X8205933Y-19563724D01*
X8215457Y-19554200D01*
X8234505Y-19544676D01*
X8424981Y-19544676D02*
X8444029Y-19544676D01*
X8463076Y-19554200D01*
X8472600Y-19563724D01*
X8482124Y-19582771D01*
X8491648Y-19620867D01*
X8491648Y-19668486D01*
X8482124Y-19706581D01*
X8472600Y-19725629D01*
X8463076Y-19735152D01*
X8444029Y-19744676D01*
X8424981Y-19744676D01*
X8405933Y-19735152D01*
X8396410Y-19725629D01*
X8386886Y-19706581D01*
X8377362Y-19668486D01*
X8377362Y-19620867D01*
X8386886Y-19582771D01*
X8396410Y-19563724D01*
X8405933Y-19554200D01*
X8424981Y-19544676D01*
X8577362Y-19744676D02*
X8577362Y-19611343D01*
X8577362Y-19630390D02*
X8586886Y-19620867D01*
X8605933Y-19611343D01*
X8634505Y-19611343D01*
X8653552Y-19620867D01*
X8663076Y-19639914D01*
X8663076Y-19744676D01*
X8663076Y-19639914D02*
X8672600Y-19620867D01*
X8691648Y-19611343D01*
X8720219Y-19611343D01*
X8739267Y-19620867D01*
X8748790Y-19639914D01*
X8748790Y-19744676D01*
X8844029Y-19744676D02*
X8844029Y-19611343D01*
X8844029Y-19630390D02*
X8853552Y-19620867D01*
X8872600Y-19611343D01*
X8901171Y-19611343D01*
X8920219Y-19620867D01*
X8929743Y-19639914D01*
X8929743Y-19744676D01*
X8929743Y-19639914D02*
X8939267Y-19620867D01*
X8958314Y-19611343D01*
X8986886Y-19611343D01*
X9005933Y-19620867D01*
X9015457Y-19639914D01*
X9015457Y-19744676D01*
X9405933Y-19535152D02*
X9234505Y-19792295D01*
X9663076Y-19544676D02*
X9682124Y-19544676D01*
X9701171Y-19554200D01*
X9710695Y-19563724D01*
X9720219Y-19582771D01*
X9729743Y-19620867D01*
X9729743Y-19668486D01*
X9720219Y-19706581D01*
X9710695Y-19725629D01*
X9701171Y-19735152D01*
X9682124Y-19744676D01*
X9663076Y-19744676D01*
X9644029Y-19735152D01*
X9634505Y-19725629D01*
X9624981Y-19706581D01*
X9615457Y-19668486D01*
X9615457Y-19620867D01*
X9624981Y-19582771D01*
X9634505Y-19563724D01*
X9644029Y-19554200D01*
X9663076Y-19544676D01*
X9815457Y-19725629D02*
X9824981Y-19735152D01*
X9815457Y-19744676D01*
X9805933Y-19735152D01*
X9815457Y-19725629D01*
X9815457Y-19744676D01*
X9948790Y-19544676D02*
X9967838Y-19544676D01*
X9986886Y-19554200D01*
X9996410Y-19563724D01*
X10005933Y-19582771D01*
X10015457Y-19620867D01*
X10015457Y-19668486D01*
X10005933Y-19706581D01*
X9996410Y-19725629D01*
X9986886Y-19735152D01*
X9967838Y-19744676D01*
X9948790Y-19744676D01*
X9929743Y-19735152D01*
X9920219Y-19725629D01*
X9910695Y-19706581D01*
X9901171Y-19668486D01*
X9901171Y-19620867D01*
X9910695Y-19582771D01*
X9920219Y-19563724D01*
X9929743Y-19554200D01*
X9948790Y-19544676D01*
X10082124Y-19544676D02*
X10205933Y-19544676D01*
X10139267Y-19620867D01*
X10167838Y-19620867D01*
X10186886Y-19630390D01*
X10196410Y-19639914D01*
X10205933Y-19658962D01*
X10205933Y-19706581D01*
X10196410Y-19725629D01*
X10186886Y-19735152D01*
X10167838Y-19744676D01*
X10110695Y-19744676D01*
X10091648Y-19735152D01*
X10082124Y-19725629D01*
X10396410Y-19744676D02*
X10282124Y-19744676D01*
X10339267Y-19744676D02*
X10339267Y-19544676D01*
X10320219Y-19573248D01*
X10301171Y-19592295D01*
X10282124Y-19601819D01*
X10577362Y-19544676D02*
X10482124Y-19544676D01*
X10472600Y-19639914D01*
X10482124Y-19630390D01*
X10501171Y-19620867D01*
X10548790Y-19620867D01*
X10567838Y-19630390D01*
X10577362Y-19639914D01*
X10586886Y-19658962D01*
X10586886Y-19706581D01*
X10577362Y-19725629D01*
X10567838Y-19735152D01*
X10548790Y-19744676D01*
X10501171Y-19744676D01*
X10482124Y-19735152D01*
X10472600Y-19725629D01*
X10663076Y-19544676D02*
X10663076Y-19582771D01*
X10739267Y-19544676D02*
X10739267Y-19582771D01*
X11034505Y-19820867D02*
X11024981Y-19811343D01*
X11005933Y-19782771D01*
X10996410Y-19763724D01*
X10986886Y-19735152D01*
X10977362Y-19687533D01*
X10977362Y-19649438D01*
X10986886Y-19601819D01*
X10996410Y-19573248D01*
X11005933Y-19554200D01*
X11024981Y-19525629D01*
X11034505Y-19516105D01*
X11196409Y-19611343D02*
X11196409Y-19744676D01*
X11148790Y-19535152D02*
X11101171Y-19678010D01*
X11224981Y-19678010D01*
X11453552Y-19744676D02*
X11453552Y-19544676D01*
X11539267Y-19744676D02*
X11539267Y-19639914D01*
X11529743Y-19620867D01*
X11510695Y-19611343D01*
X11482124Y-19611343D01*
X11463076Y-19620867D01*
X11453552Y-19630390D01*
X11663076Y-19744676D02*
X11644028Y-19735152D01*
X11634505Y-19725629D01*
X11624981Y-19706581D01*
X11624981Y-19649438D01*
X11634505Y-19630390D01*
X11644028Y-19620867D01*
X11663076Y-19611343D01*
X11691648Y-19611343D01*
X11710695Y-19620867D01*
X11720219Y-19630390D01*
X11729743Y-19649438D01*
X11729743Y-19706581D01*
X11720219Y-19725629D01*
X11710695Y-19735152D01*
X11691648Y-19744676D01*
X11663076Y-19744676D01*
X11844028Y-19744676D02*
X11824981Y-19735152D01*
X11815457Y-19716105D01*
X11815457Y-19544676D01*
X11996409Y-19735152D02*
X11977362Y-19744676D01*
X11939267Y-19744676D01*
X11920219Y-19735152D01*
X11910695Y-19716105D01*
X11910695Y-19639914D01*
X11920219Y-19620867D01*
X11939267Y-19611343D01*
X11977362Y-19611343D01*
X11996409Y-19620867D01*
X12005933Y-19639914D01*
X12005933Y-19658962D01*
X11910695Y-19678010D01*
X12082124Y-19735152D02*
X12101171Y-19744676D01*
X12139267Y-19744676D01*
X12158314Y-19735152D01*
X12167838Y-19716105D01*
X12167838Y-19706581D01*
X12158314Y-19687533D01*
X12139267Y-19678010D01*
X12110695Y-19678010D01*
X12091648Y-19668486D01*
X12082124Y-19649438D01*
X12082124Y-19639914D01*
X12091648Y-19620867D01*
X12110695Y-19611343D01*
X12139267Y-19611343D01*
X12158314Y-19620867D01*
X12234505Y-19820867D02*
X12244028Y-19811343D01*
X12263076Y-19782771D01*
X12272600Y-19763724D01*
X12282124Y-19735152D01*
X12291648Y-19687533D01*
X12291648Y-19649438D01*
X12282124Y-19601819D01*
X12272600Y-19573248D01*
X12263076Y-19554200D01*
X12244028Y-19525629D01*
X12234505Y-19516105D01*
D14*
X7417600Y-19873200D02*
X7417600Y-19963200D01*
X7372600Y-19918200D02*
X7462600Y-19918200D01*
D11*
X7758314Y-19808676D02*
X7777362Y-19808676D01*
X7796409Y-19818200D01*
X7805933Y-19827724D01*
X7815457Y-19846771D01*
X7824981Y-19884867D01*
X7824981Y-19932486D01*
X7815457Y-19970581D01*
X7805933Y-19989629D01*
X7796409Y-19999152D01*
X7777362Y-20008676D01*
X7758314Y-20008676D01*
X7739267Y-19999152D01*
X7729743Y-19989629D01*
X7720219Y-19970581D01*
X7710695Y-19932486D01*
X7710695Y-19884867D01*
X7720219Y-19846771D01*
X7729743Y-19827724D01*
X7739267Y-19818200D01*
X7758314Y-19808676D01*
X7910695Y-19989629D02*
X7920219Y-19999152D01*
X7910695Y-20008676D01*
X7901171Y-19999152D01*
X7910695Y-19989629D01*
X7910695Y-20008676D01*
X8015457Y-20008676D02*
X8053552Y-20008676D01*
X8072600Y-19999152D01*
X8082124Y-19989629D01*
X8101171Y-19961057D01*
X8110695Y-19922962D01*
X8110695Y-19846771D01*
X8101171Y-19827724D01*
X8091648Y-19818200D01*
X8072600Y-19808676D01*
X8034505Y-19808676D01*
X8015457Y-19818200D01*
X8005933Y-19827724D01*
X7996409Y-19846771D01*
X7996409Y-19894390D01*
X8005933Y-19913438D01*
X8015457Y-19922962D01*
X8034505Y-19932486D01*
X8072600Y-19932486D01*
X8091648Y-19922962D01*
X8101171Y-19913438D01*
X8110695Y-19894390D01*
X8234505Y-19808676D02*
X8253552Y-19808676D01*
X8272600Y-19818200D01*
X8282124Y-19827724D01*
X8291648Y-19846771D01*
X8301171Y-19884867D01*
X8301171Y-19932486D01*
X8291648Y-19970581D01*
X8282124Y-19989629D01*
X8272600Y-19999152D01*
X8253552Y-20008676D01*
X8234505Y-20008676D01*
X8215457Y-19999152D01*
X8205933Y-19989629D01*
X8196409Y-19970581D01*
X8186886Y-19932486D01*
X8186886Y-19884867D01*
X8196409Y-19846771D01*
X8205933Y-19827724D01*
X8215457Y-19818200D01*
X8234505Y-19808676D01*
X8424981Y-19808676D02*
X8444029Y-19808676D01*
X8463076Y-19818200D01*
X8472600Y-19827724D01*
X8482124Y-19846771D01*
X8491648Y-19884867D01*
X8491648Y-19932486D01*
X8482124Y-19970581D01*
X8472600Y-19989629D01*
X8463076Y-19999152D01*
X8444029Y-20008676D01*
X8424981Y-20008676D01*
X8405933Y-19999152D01*
X8396410Y-19989629D01*
X8386886Y-19970581D01*
X8377362Y-19932486D01*
X8377362Y-19884867D01*
X8386886Y-19846771D01*
X8396410Y-19827724D01*
X8405933Y-19818200D01*
X8424981Y-19808676D01*
X8577362Y-20008676D02*
X8577362Y-19875343D01*
X8577362Y-19894390D02*
X8586886Y-19884867D01*
X8605933Y-19875343D01*
X8634505Y-19875343D01*
X8653552Y-19884867D01*
X8663076Y-19903914D01*
X8663076Y-20008676D01*
X8663076Y-19903914D02*
X8672600Y-19884867D01*
X8691648Y-19875343D01*
X8720219Y-19875343D01*
X8739267Y-19884867D01*
X8748790Y-19903914D01*
X8748790Y-20008676D01*
X8844029Y-20008676D02*
X8844029Y-19875343D01*
X8844029Y-19894390D02*
X8853552Y-19884867D01*
X8872600Y-19875343D01*
X8901171Y-19875343D01*
X8920219Y-19884867D01*
X8929743Y-19903914D01*
X8929743Y-20008676D01*
X8929743Y-19903914D02*
X8939267Y-19884867D01*
X8958314Y-19875343D01*
X8986886Y-19875343D01*
X9005933Y-19884867D01*
X9015457Y-19903914D01*
X9015457Y-20008676D01*
X9405933Y-19799152D02*
X9234505Y-20056295D01*
X9663076Y-19808676D02*
X9682124Y-19808676D01*
X9701171Y-19818200D01*
X9710695Y-19827724D01*
X9720219Y-19846771D01*
X9729743Y-19884867D01*
X9729743Y-19932486D01*
X9720219Y-19970581D01*
X9710695Y-19989629D01*
X9701171Y-19999152D01*
X9682124Y-20008676D01*
X9663076Y-20008676D01*
X9644029Y-19999152D01*
X9634505Y-19989629D01*
X9624981Y-19970581D01*
X9615457Y-19932486D01*
X9615457Y-19884867D01*
X9624981Y-19846771D01*
X9634505Y-19827724D01*
X9644029Y-19818200D01*
X9663076Y-19808676D01*
X9815457Y-19989629D02*
X9824981Y-19999152D01*
X9815457Y-20008676D01*
X9805933Y-19999152D01*
X9815457Y-19989629D01*
X9815457Y-20008676D01*
X9948790Y-19808676D02*
X9967838Y-19808676D01*
X9986886Y-19818200D01*
X9996410Y-19827724D01*
X10005933Y-19846771D01*
X10015457Y-19884867D01*
X10015457Y-19932486D01*
X10005933Y-19970581D01*
X9996410Y-19989629D01*
X9986886Y-19999152D01*
X9967838Y-20008676D01*
X9948790Y-20008676D01*
X9929743Y-19999152D01*
X9920219Y-19989629D01*
X9910695Y-19970581D01*
X9901171Y-19932486D01*
X9901171Y-19884867D01*
X9910695Y-19846771D01*
X9920219Y-19827724D01*
X9929743Y-19818200D01*
X9948790Y-19808676D01*
X10082124Y-19808676D02*
X10205933Y-19808676D01*
X10139267Y-19884867D01*
X10167838Y-19884867D01*
X10186886Y-19894390D01*
X10196410Y-19903914D01*
X10205933Y-19922962D01*
X10205933Y-19970581D01*
X10196410Y-19989629D01*
X10186886Y-19999152D01*
X10167838Y-20008676D01*
X10110695Y-20008676D01*
X10091648Y-19999152D01*
X10082124Y-19989629D01*
X10386886Y-19808676D02*
X10291648Y-19808676D01*
X10282124Y-19903914D01*
X10291648Y-19894390D01*
X10310695Y-19884867D01*
X10358314Y-19884867D01*
X10377362Y-19894390D01*
X10386886Y-19903914D01*
X10396410Y-19922962D01*
X10396410Y-19970581D01*
X10386886Y-19989629D01*
X10377362Y-19999152D01*
X10358314Y-20008676D01*
X10310695Y-20008676D01*
X10291648Y-19999152D01*
X10282124Y-19989629D01*
X10567838Y-19875343D02*
X10567838Y-20008676D01*
X10520219Y-19799152D02*
X10472600Y-19942010D01*
X10596410Y-19942010D01*
X10663076Y-19808676D02*
X10663076Y-19846771D01*
X10739267Y-19808676D02*
X10739267Y-19846771D01*
X11034505Y-20084867D02*
X11024981Y-20075343D01*
X11005933Y-20046771D01*
X10996410Y-20027724D01*
X10986886Y-19999152D01*
X10977362Y-19951533D01*
X10977362Y-19913438D01*
X10986886Y-19865819D01*
X10996410Y-19837248D01*
X11005933Y-19818200D01*
X11024981Y-19789629D01*
X11034505Y-19780105D01*
X11101171Y-19827724D02*
X11110695Y-19818200D01*
X11129743Y-19808676D01*
X11177362Y-19808676D01*
X11196409Y-19818200D01*
X11205933Y-19827724D01*
X11215457Y-19846771D01*
X11215457Y-19865819D01*
X11205933Y-19894390D01*
X11091648Y-20008676D01*
X11215457Y-20008676D01*
X11453552Y-20008676D02*
X11453552Y-19808676D01*
X11539267Y-20008676D02*
X11539267Y-19903914D01*
X11529743Y-19884867D01*
X11510695Y-19875343D01*
X11482124Y-19875343D01*
X11463076Y-19884867D01*
X11453552Y-19894390D01*
X11663076Y-20008676D02*
X11644028Y-19999152D01*
X11634505Y-19989629D01*
X11624981Y-19970581D01*
X11624981Y-19913438D01*
X11634505Y-19894390D01*
X11644028Y-19884867D01*
X11663076Y-19875343D01*
X11691648Y-19875343D01*
X11710695Y-19884867D01*
X11720219Y-19894390D01*
X11729743Y-19913438D01*
X11729743Y-19970581D01*
X11720219Y-19989629D01*
X11710695Y-19999152D01*
X11691648Y-20008676D01*
X11663076Y-20008676D01*
X11844028Y-20008676D02*
X11824981Y-19999152D01*
X11815457Y-19980105D01*
X11815457Y-19808676D01*
X11996409Y-19999152D02*
X11977362Y-20008676D01*
X11939267Y-20008676D01*
X11920219Y-19999152D01*
X11910695Y-19980105D01*
X11910695Y-19903914D01*
X11920219Y-19884867D01*
X11939267Y-19875343D01*
X11977362Y-19875343D01*
X11996409Y-19884867D01*
X12005933Y-19903914D01*
X12005933Y-19922962D01*
X11910695Y-19942010D01*
X12082124Y-19999152D02*
X12101171Y-20008676D01*
X12139267Y-20008676D01*
X12158314Y-19999152D01*
X12167838Y-19980105D01*
X12167838Y-19970581D01*
X12158314Y-19951533D01*
X12139267Y-19942010D01*
X12110695Y-19942010D01*
X12091648Y-19932486D01*
X12082124Y-19913438D01*
X12082124Y-19903914D01*
X12091648Y-19884867D01*
X12110695Y-19875343D01*
X12139267Y-19875343D01*
X12158314Y-19884867D01*
X12234505Y-20084867D02*
X12244028Y-20075343D01*
X12263076Y-20046771D01*
X12272600Y-20027724D01*
X12282124Y-19999152D01*
X12291648Y-19951533D01*
X12291648Y-19913438D01*
X12282124Y-19865819D01*
X12272600Y-19837248D01*
X12263076Y-19818200D01*
X12244028Y-19789629D01*
X12234505Y-19780105D01*
D15*
X7448688Y-20215788D02*
X7448688Y-20148612D01*
X7381512Y-20148612D01*
X7381512Y-20215788D01*
X7448688Y-20215788D01*
D11*
X7758314Y-20072676D02*
X7777362Y-20072676D01*
X7796409Y-20082200D01*
X7805933Y-20091724D01*
X7815457Y-20110771D01*
X7824981Y-20148867D01*
X7824981Y-20196486D01*
X7815457Y-20234581D01*
X7805933Y-20253629D01*
X7796409Y-20263152D01*
X7777362Y-20272676D01*
X7758314Y-20272676D01*
X7739267Y-20263152D01*
X7729743Y-20253629D01*
X7720219Y-20234581D01*
X7710695Y-20196486D01*
X7710695Y-20148867D01*
X7720219Y-20110771D01*
X7729743Y-20091724D01*
X7739267Y-20082200D01*
X7758314Y-20072676D01*
X7910695Y-20253629D02*
X7920219Y-20263152D01*
X7910695Y-20272676D01*
X7901171Y-20263152D01*
X7910695Y-20253629D01*
X7910695Y-20272676D01*
X8015457Y-20272676D02*
X8053552Y-20272676D01*
X8072600Y-20263152D01*
X8082124Y-20253629D01*
X8101171Y-20225057D01*
X8110695Y-20186962D01*
X8110695Y-20110771D01*
X8101171Y-20091724D01*
X8091648Y-20082200D01*
X8072600Y-20072676D01*
X8034505Y-20072676D01*
X8015457Y-20082200D01*
X8005933Y-20091724D01*
X7996409Y-20110771D01*
X7996409Y-20158390D01*
X8005933Y-20177438D01*
X8015457Y-20186962D01*
X8034505Y-20196486D01*
X8072600Y-20196486D01*
X8091648Y-20186962D01*
X8101171Y-20177438D01*
X8110695Y-20158390D01*
X8291648Y-20072676D02*
X8196409Y-20072676D01*
X8186886Y-20167914D01*
X8196409Y-20158390D01*
X8215457Y-20148867D01*
X8263076Y-20148867D01*
X8282124Y-20158390D01*
X8291648Y-20167914D01*
X8301171Y-20186962D01*
X8301171Y-20234581D01*
X8291648Y-20253629D01*
X8282124Y-20263152D01*
X8263076Y-20272676D01*
X8215457Y-20272676D01*
X8196409Y-20263152D01*
X8186886Y-20253629D01*
X8424981Y-20072676D02*
X8444029Y-20072676D01*
X8463076Y-20082200D01*
X8472600Y-20091724D01*
X8482124Y-20110771D01*
X8491648Y-20148867D01*
X8491648Y-20196486D01*
X8482124Y-20234581D01*
X8472600Y-20253629D01*
X8463076Y-20263152D01*
X8444029Y-20272676D01*
X8424981Y-20272676D01*
X8405933Y-20263152D01*
X8396410Y-20253629D01*
X8386886Y-20234581D01*
X8377362Y-20196486D01*
X8377362Y-20148867D01*
X8386886Y-20110771D01*
X8396410Y-20091724D01*
X8405933Y-20082200D01*
X8424981Y-20072676D01*
X8577362Y-20272676D02*
X8577362Y-20139343D01*
X8577362Y-20158390D02*
X8586886Y-20148867D01*
X8605933Y-20139343D01*
X8634505Y-20139343D01*
X8653552Y-20148867D01*
X8663076Y-20167914D01*
X8663076Y-20272676D01*
X8663076Y-20167914D02*
X8672600Y-20148867D01*
X8691648Y-20139343D01*
X8720219Y-20139343D01*
X8739267Y-20148867D01*
X8748790Y-20167914D01*
X8748790Y-20272676D01*
X8844029Y-20272676D02*
X8844029Y-20139343D01*
X8844029Y-20158390D02*
X8853552Y-20148867D01*
X8872600Y-20139343D01*
X8901171Y-20139343D01*
X8920219Y-20148867D01*
X8929743Y-20167914D01*
X8929743Y-20272676D01*
X8929743Y-20167914D02*
X8939267Y-20148867D01*
X8958314Y-20139343D01*
X8986886Y-20139343D01*
X9005933Y-20148867D01*
X9015457Y-20167914D01*
X9015457Y-20272676D01*
X9405933Y-20063152D02*
X9234505Y-20320295D01*
X9663076Y-20072676D02*
X9682124Y-20072676D01*
X9701171Y-20082200D01*
X9710695Y-20091724D01*
X9720219Y-20110771D01*
X9729743Y-20148867D01*
X9729743Y-20196486D01*
X9720219Y-20234581D01*
X9710695Y-20253629D01*
X9701171Y-20263152D01*
X9682124Y-20272676D01*
X9663076Y-20272676D01*
X9644029Y-20263152D01*
X9634505Y-20253629D01*
X9624981Y-20234581D01*
X9615457Y-20196486D01*
X9615457Y-20148867D01*
X9624981Y-20110771D01*
X9634505Y-20091724D01*
X9644029Y-20082200D01*
X9663076Y-20072676D01*
X9815457Y-20253629D02*
X9824981Y-20263152D01*
X9815457Y-20272676D01*
X9805933Y-20263152D01*
X9815457Y-20253629D01*
X9815457Y-20272676D01*
X9948790Y-20072676D02*
X9967838Y-20072676D01*
X9986886Y-20082200D01*
X9996410Y-20091724D01*
X10005933Y-20110771D01*
X10015457Y-20148867D01*
X10015457Y-20196486D01*
X10005933Y-20234581D01*
X9996410Y-20253629D01*
X9986886Y-20263152D01*
X9967838Y-20272676D01*
X9948790Y-20272676D01*
X9929743Y-20263152D01*
X9920219Y-20253629D01*
X9910695Y-20234581D01*
X9901171Y-20196486D01*
X9901171Y-20148867D01*
X9910695Y-20110771D01*
X9920219Y-20091724D01*
X9929743Y-20082200D01*
X9948790Y-20072676D01*
X10082124Y-20072676D02*
X10205933Y-20072676D01*
X10139267Y-20148867D01*
X10167838Y-20148867D01*
X10186886Y-20158390D01*
X10196410Y-20167914D01*
X10205933Y-20186962D01*
X10205933Y-20234581D01*
X10196410Y-20253629D01*
X10186886Y-20263152D01*
X10167838Y-20272676D01*
X10110695Y-20272676D01*
X10091648Y-20263152D01*
X10082124Y-20253629D01*
X10272600Y-20072676D02*
X10405933Y-20072676D01*
X10320219Y-20272676D01*
X10567838Y-20139343D02*
X10567838Y-20272676D01*
X10520219Y-20063152D02*
X10472600Y-20206010D01*
X10596410Y-20206010D01*
X10663076Y-20072676D02*
X10663076Y-20110771D01*
X10739267Y-20072676D02*
X10739267Y-20110771D01*
X11034505Y-20348867D02*
X11024981Y-20339343D01*
X11005933Y-20310771D01*
X10996410Y-20291724D01*
X10986886Y-20263152D01*
X10977362Y-20215533D01*
X10977362Y-20177438D01*
X10986886Y-20129819D01*
X10996410Y-20101248D01*
X11005933Y-20082200D01*
X11024981Y-20053629D01*
X11034505Y-20044105D01*
X11196409Y-20072676D02*
X11158314Y-20072676D01*
X11139267Y-20082200D01*
X11129743Y-20091724D01*
X11110695Y-20120295D01*
X11101171Y-20158390D01*
X11101171Y-20234581D01*
X11110695Y-20253629D01*
X11120219Y-20263152D01*
X11139267Y-20272676D01*
X11177362Y-20272676D01*
X11196409Y-20263152D01*
X11205933Y-20253629D01*
X11215457Y-20234581D01*
X11215457Y-20186962D01*
X11205933Y-20167914D01*
X11196409Y-20158390D01*
X11177362Y-20148867D01*
X11139267Y-20148867D01*
X11120219Y-20158390D01*
X11110695Y-20167914D01*
X11101171Y-20186962D01*
X11453552Y-20272676D02*
X11453552Y-20072676D01*
X11539267Y-20272676D02*
X11539267Y-20167914D01*
X11529743Y-20148867D01*
X11510695Y-20139343D01*
X11482124Y-20139343D01*
X11463076Y-20148867D01*
X11453552Y-20158390D01*
X11663076Y-20272676D02*
X11644028Y-20263152D01*
X11634505Y-20253629D01*
X11624981Y-20234581D01*
X11624981Y-20177438D01*
X11634505Y-20158390D01*
X11644028Y-20148867D01*
X11663076Y-20139343D01*
X11691648Y-20139343D01*
X11710695Y-20148867D01*
X11720219Y-20158390D01*
X11729743Y-20177438D01*
X11729743Y-20234581D01*
X11720219Y-20253629D01*
X11710695Y-20263152D01*
X11691648Y-20272676D01*
X11663076Y-20272676D01*
X11844028Y-20272676D02*
X11824981Y-20263152D01*
X11815457Y-20244105D01*
X11815457Y-20072676D01*
X11996409Y-20263152D02*
X11977362Y-20272676D01*
X11939267Y-20272676D01*
X11920219Y-20263152D01*
X11910695Y-20244105D01*
X11910695Y-20167914D01*
X11920219Y-20148867D01*
X11939267Y-20139343D01*
X11977362Y-20139343D01*
X11996409Y-20148867D01*
X12005933Y-20167914D01*
X12005933Y-20186962D01*
X11910695Y-20206010D01*
X12082124Y-20263152D02*
X12101171Y-20272676D01*
X12139267Y-20272676D01*
X12158314Y-20263152D01*
X12167838Y-20244105D01*
X12167838Y-20234581D01*
X12158314Y-20215533D01*
X12139267Y-20206010D01*
X12110695Y-20206010D01*
X12091648Y-20196486D01*
X12082124Y-20177438D01*
X12082124Y-20167914D01*
X12091648Y-20148867D01*
X12110695Y-20139343D01*
X12139267Y-20139343D01*
X12158314Y-20148867D01*
X12234505Y-20348867D02*
X12244028Y-20339343D01*
X12263076Y-20310771D01*
X12272600Y-20291724D01*
X12282124Y-20263152D01*
X12291648Y-20215533D01*
X12291648Y-20177438D01*
X12282124Y-20129819D01*
X12272600Y-20101248D01*
X12263076Y-20082200D01*
X12244028Y-20053629D01*
X12234505Y-20044105D01*
D10*
X7412600Y-20496200D02*
X7462600Y-20446200D01*
X7412600Y-20396200D01*
X7362600Y-20446200D01*
X7412600Y-20496200D01*
D11*
X7824981Y-20536676D02*
X7710695Y-20536676D01*
X7767838Y-20536676D02*
X7767838Y-20336676D01*
X7748790Y-20365248D01*
X7729743Y-20384295D01*
X7710695Y-20393819D01*
X7910695Y-20517629D02*
X7920219Y-20527152D01*
X7910695Y-20536676D01*
X7901171Y-20527152D01*
X7910695Y-20517629D01*
X7910695Y-20536676D01*
X8044028Y-20336676D02*
X8063076Y-20336676D01*
X8082124Y-20346200D01*
X8091648Y-20355724D01*
X8101171Y-20374771D01*
X8110695Y-20412867D01*
X8110695Y-20460486D01*
X8101171Y-20498581D01*
X8091648Y-20517629D01*
X8082124Y-20527152D01*
X8063076Y-20536676D01*
X8044028Y-20536676D01*
X8024981Y-20527152D01*
X8015457Y-20517629D01*
X8005933Y-20498581D01*
X7996409Y-20460486D01*
X7996409Y-20412867D01*
X8005933Y-20374771D01*
X8015457Y-20355724D01*
X8024981Y-20346200D01*
X8044028Y-20336676D01*
X8234505Y-20336676D02*
X8253552Y-20336676D01*
X8272600Y-20346200D01*
X8282124Y-20355724D01*
X8291648Y-20374771D01*
X8301171Y-20412867D01*
X8301171Y-20460486D01*
X8291648Y-20498581D01*
X8282124Y-20517629D01*
X8272600Y-20527152D01*
X8253552Y-20536676D01*
X8234505Y-20536676D01*
X8215457Y-20527152D01*
X8205933Y-20517629D01*
X8196409Y-20498581D01*
X8186886Y-20460486D01*
X8186886Y-20412867D01*
X8196409Y-20374771D01*
X8205933Y-20355724D01*
X8215457Y-20346200D01*
X8234505Y-20336676D01*
X8424981Y-20336676D02*
X8444029Y-20336676D01*
X8463076Y-20346200D01*
X8472600Y-20355724D01*
X8482124Y-20374771D01*
X8491648Y-20412867D01*
X8491648Y-20460486D01*
X8482124Y-20498581D01*
X8472600Y-20517629D01*
X8463076Y-20527152D01*
X8444029Y-20536676D01*
X8424981Y-20536676D01*
X8405933Y-20527152D01*
X8396410Y-20517629D01*
X8386886Y-20498581D01*
X8377362Y-20460486D01*
X8377362Y-20412867D01*
X8386886Y-20374771D01*
X8396410Y-20355724D01*
X8405933Y-20346200D01*
X8424981Y-20336676D01*
X8577362Y-20536676D02*
X8577362Y-20403343D01*
X8577362Y-20422390D02*
X8586886Y-20412867D01*
X8605933Y-20403343D01*
X8634505Y-20403343D01*
X8653552Y-20412867D01*
X8663076Y-20431914D01*
X8663076Y-20536676D01*
X8663076Y-20431914D02*
X8672600Y-20412867D01*
X8691648Y-20403343D01*
X8720219Y-20403343D01*
X8739267Y-20412867D01*
X8748790Y-20431914D01*
X8748790Y-20536676D01*
X8844029Y-20536676D02*
X8844029Y-20403343D01*
X8844029Y-20422390D02*
X8853552Y-20412867D01*
X8872600Y-20403343D01*
X8901171Y-20403343D01*
X8920219Y-20412867D01*
X8929743Y-20431914D01*
X8929743Y-20536676D01*
X8929743Y-20431914D02*
X8939267Y-20412867D01*
X8958314Y-20403343D01*
X8986886Y-20403343D01*
X9005933Y-20412867D01*
X9015457Y-20431914D01*
X9015457Y-20536676D01*
X9405933Y-20327152D02*
X9234505Y-20584295D01*
X9663076Y-20336676D02*
X9682124Y-20336676D01*
X9701171Y-20346200D01*
X9710695Y-20355724D01*
X9720219Y-20374771D01*
X9729743Y-20412867D01*
X9729743Y-20460486D01*
X9720219Y-20498581D01*
X9710695Y-20517629D01*
X9701171Y-20527152D01*
X9682124Y-20536676D01*
X9663076Y-20536676D01*
X9644029Y-20527152D01*
X9634505Y-20517629D01*
X9624981Y-20498581D01*
X9615457Y-20460486D01*
X9615457Y-20412867D01*
X9624981Y-20374771D01*
X9634505Y-20355724D01*
X9644029Y-20346200D01*
X9663076Y-20336676D01*
X9815457Y-20517629D02*
X9824981Y-20527152D01*
X9815457Y-20536676D01*
X9805933Y-20527152D01*
X9815457Y-20517629D01*
X9815457Y-20536676D01*
X9948790Y-20336676D02*
X9967838Y-20336676D01*
X9986886Y-20346200D01*
X9996410Y-20355724D01*
X10005933Y-20374771D01*
X10015457Y-20412867D01*
X10015457Y-20460486D01*
X10005933Y-20498581D01*
X9996410Y-20517629D01*
X9986886Y-20527152D01*
X9967838Y-20536676D01*
X9948790Y-20536676D01*
X9929743Y-20527152D01*
X9920219Y-20517629D01*
X9910695Y-20498581D01*
X9901171Y-20460486D01*
X9901171Y-20412867D01*
X9910695Y-20374771D01*
X9920219Y-20355724D01*
X9929743Y-20346200D01*
X9948790Y-20336676D01*
X10082124Y-20336676D02*
X10205933Y-20336676D01*
X10139267Y-20412867D01*
X10167838Y-20412867D01*
X10186886Y-20422390D01*
X10196410Y-20431914D01*
X10205933Y-20450962D01*
X10205933Y-20498581D01*
X10196410Y-20517629D01*
X10186886Y-20527152D01*
X10167838Y-20536676D01*
X10110695Y-20536676D01*
X10091648Y-20527152D01*
X10082124Y-20517629D01*
X10301171Y-20536676D02*
X10339267Y-20536676D01*
X10358314Y-20527152D01*
X10367838Y-20517629D01*
X10386886Y-20489057D01*
X10396410Y-20450962D01*
X10396410Y-20374771D01*
X10386886Y-20355724D01*
X10377362Y-20346200D01*
X10358314Y-20336676D01*
X10320219Y-20336676D01*
X10301171Y-20346200D01*
X10291648Y-20355724D01*
X10282124Y-20374771D01*
X10282124Y-20422390D01*
X10291648Y-20441438D01*
X10301171Y-20450962D01*
X10320219Y-20460486D01*
X10358314Y-20460486D01*
X10377362Y-20450962D01*
X10386886Y-20441438D01*
X10396410Y-20422390D01*
X10567838Y-20403343D02*
X10567838Y-20536676D01*
X10520219Y-20327152D02*
X10472600Y-20470010D01*
X10596410Y-20470010D01*
X10663076Y-20336676D02*
X10663076Y-20374771D01*
X10739267Y-20336676D02*
X10739267Y-20374771D01*
X11034505Y-20612867D02*
X11024981Y-20603343D01*
X11005933Y-20574771D01*
X10996410Y-20555724D01*
X10986886Y-20527152D01*
X10977362Y-20479533D01*
X10977362Y-20441438D01*
X10986886Y-20393819D01*
X10996410Y-20365248D01*
X11005933Y-20346200D01*
X11024981Y-20317629D01*
X11034505Y-20308105D01*
X11196409Y-20336676D02*
X11158314Y-20336676D01*
X11139267Y-20346200D01*
X11129743Y-20355724D01*
X11110695Y-20384295D01*
X11101171Y-20422390D01*
X11101171Y-20498581D01*
X11110695Y-20517629D01*
X11120219Y-20527152D01*
X11139267Y-20536676D01*
X11177362Y-20536676D01*
X11196409Y-20527152D01*
X11205933Y-20517629D01*
X11215457Y-20498581D01*
X11215457Y-20450962D01*
X11205933Y-20431914D01*
X11196409Y-20422390D01*
X11177362Y-20412867D01*
X11139267Y-20412867D01*
X11120219Y-20422390D01*
X11110695Y-20431914D01*
X11101171Y-20450962D01*
X11386886Y-20336676D02*
X11348790Y-20336676D01*
X11329743Y-20346200D01*
X11320219Y-20355724D01*
X11301171Y-20384295D01*
X11291648Y-20422390D01*
X11291648Y-20498581D01*
X11301171Y-20517629D01*
X11310695Y-20527152D01*
X11329743Y-20536676D01*
X11367838Y-20536676D01*
X11386886Y-20527152D01*
X11396409Y-20517629D01*
X11405933Y-20498581D01*
X11405933Y-20450962D01*
X11396409Y-20431914D01*
X11386886Y-20422390D01*
X11367838Y-20412867D01*
X11329743Y-20412867D01*
X11310695Y-20422390D01*
X11301171Y-20431914D01*
X11291648Y-20450962D01*
X11644028Y-20536676D02*
X11644028Y-20336676D01*
X11729743Y-20536676D02*
X11729743Y-20431914D01*
X11720219Y-20412867D01*
X11701171Y-20403343D01*
X11672600Y-20403343D01*
X11653552Y-20412867D01*
X11644028Y-20422390D01*
X11853552Y-20536676D02*
X11834505Y-20527152D01*
X11824981Y-20517629D01*
X11815457Y-20498581D01*
X11815457Y-20441438D01*
X11824981Y-20422390D01*
X11834505Y-20412867D01*
X11853552Y-20403343D01*
X11882124Y-20403343D01*
X11901171Y-20412867D01*
X11910695Y-20422390D01*
X11920219Y-20441438D01*
X11920219Y-20498581D01*
X11910695Y-20517629D01*
X11901171Y-20527152D01*
X11882124Y-20536676D01*
X11853552Y-20536676D01*
X12034505Y-20536676D02*
X12015457Y-20527152D01*
X12005933Y-20508105D01*
X12005933Y-20336676D01*
X12186886Y-20527152D02*
X12167838Y-20536676D01*
X12129743Y-20536676D01*
X12110695Y-20527152D01*
X12101171Y-20508105D01*
X12101171Y-20431914D01*
X12110695Y-20412867D01*
X12129743Y-20403343D01*
X12167838Y-20403343D01*
X12186886Y-20412867D01*
X12196409Y-20431914D01*
X12196409Y-20450962D01*
X12101171Y-20470010D01*
X12272600Y-20527152D02*
X12291648Y-20536676D01*
X12329743Y-20536676D01*
X12348790Y-20527152D01*
X12358314Y-20508105D01*
X12358314Y-20498581D01*
X12348790Y-20479533D01*
X12329743Y-20470010D01*
X12301171Y-20470010D01*
X12282124Y-20460486D01*
X12272600Y-20441438D01*
X12272600Y-20431914D01*
X12282124Y-20412867D01*
X12301171Y-20403343D01*
X12329743Y-20403343D01*
X12348790Y-20412867D01*
X12596409Y-20460486D02*
X12748790Y-20460486D01*
X12672600Y-20536676D02*
X12672600Y-20384295D01*
X12977362Y-20336676D02*
X13101171Y-20336676D01*
X13034505Y-20412867D01*
X13063076Y-20412867D01*
X13082124Y-20422390D01*
X13091648Y-20431914D01*
X13101171Y-20450962D01*
X13101171Y-20498581D01*
X13091648Y-20517629D01*
X13082124Y-20527152D01*
X13063076Y-20536676D01*
X13005933Y-20536676D01*
X12986886Y-20527152D01*
X12977362Y-20517629D01*
X13329743Y-20527152D02*
X13348790Y-20536676D01*
X13386886Y-20536676D01*
X13405933Y-20527152D01*
X13415457Y-20508105D01*
X13415457Y-20498581D01*
X13405933Y-20479533D01*
X13386886Y-20470010D01*
X13358314Y-20470010D01*
X13339267Y-20460486D01*
X13329743Y-20441438D01*
X13329743Y-20431914D01*
X13339267Y-20412867D01*
X13358314Y-20403343D01*
X13386886Y-20403343D01*
X13405933Y-20412867D01*
X13529743Y-20536676D02*
X13510695Y-20527152D01*
X13501171Y-20508105D01*
X13501171Y-20336676D01*
X13634505Y-20536676D02*
X13615457Y-20527152D01*
X13605933Y-20517629D01*
X13596409Y-20498581D01*
X13596409Y-20441438D01*
X13605933Y-20422390D01*
X13615457Y-20412867D01*
X13634505Y-20403343D01*
X13663076Y-20403343D01*
X13682124Y-20412867D01*
X13691648Y-20422390D01*
X13701171Y-20441438D01*
X13701171Y-20498581D01*
X13691648Y-20517629D01*
X13682124Y-20527152D01*
X13663076Y-20536676D01*
X13634505Y-20536676D01*
X13758314Y-20403343D02*
X13834505Y-20403343D01*
X13786886Y-20336676D02*
X13786886Y-20508105D01*
X13796409Y-20527152D01*
X13815457Y-20536676D01*
X13834505Y-20536676D01*
X13891648Y-20527152D02*
X13910695Y-20536676D01*
X13948790Y-20536676D01*
X13967838Y-20527152D01*
X13977362Y-20508105D01*
X13977362Y-20498581D01*
X13967838Y-20479533D01*
X13948790Y-20470010D01*
X13920219Y-20470010D01*
X13901171Y-20460486D01*
X13891648Y-20441438D01*
X13891648Y-20431914D01*
X13901171Y-20412867D01*
X13920219Y-20403343D01*
X13948790Y-20403343D01*
X13967838Y-20412867D01*
X14044028Y-20612867D02*
X14053552Y-20603343D01*
X14072600Y-20574771D01*
X14082124Y-20555724D01*
X14091648Y-20527152D01*
X14101171Y-20479533D01*
X14101171Y-20441438D01*
X14091648Y-20393819D01*
X14082124Y-20365248D01*
X14072600Y-20346200D01*
X14053552Y-20317629D01*
X14044028Y-20308105D01*
D16*
X7361000Y-20659400D02*
X7462600Y-20761000D01*
X7462600Y-20659400D02*
X7361000Y-20761000D01*
X7462600Y-20710200D02*
G75*
G03*
X7462600Y-20710200I-50800J0D01*
G01*
D11*
X7824981Y-20800676D02*
X7710695Y-20800676D01*
X7767838Y-20800676D02*
X7767838Y-20600676D01*
X7748790Y-20629248D01*
X7729743Y-20648295D01*
X7710695Y-20657819D01*
X7910695Y-20781629D02*
X7920219Y-20791152D01*
X7910695Y-20800676D01*
X7901171Y-20791152D01*
X7910695Y-20781629D01*
X7910695Y-20800676D01*
X8044028Y-20600676D02*
X8063076Y-20600676D01*
X8082124Y-20610200D01*
X8091648Y-20619724D01*
X8101171Y-20638771D01*
X8110695Y-20676867D01*
X8110695Y-20724486D01*
X8101171Y-20762581D01*
X8091648Y-20781629D01*
X8082124Y-20791152D01*
X8063076Y-20800676D01*
X8044028Y-20800676D01*
X8024981Y-20791152D01*
X8015457Y-20781629D01*
X8005933Y-20762581D01*
X7996409Y-20724486D01*
X7996409Y-20676867D01*
X8005933Y-20638771D01*
X8015457Y-20619724D01*
X8024981Y-20610200D01*
X8044028Y-20600676D01*
X8301171Y-20800676D02*
X8186886Y-20800676D01*
X8244028Y-20800676D02*
X8244028Y-20600676D01*
X8224981Y-20629248D01*
X8205933Y-20648295D01*
X8186886Y-20657819D01*
X8472600Y-20600676D02*
X8434505Y-20600676D01*
X8415457Y-20610200D01*
X8405933Y-20619724D01*
X8386886Y-20648295D01*
X8377362Y-20686390D01*
X8377362Y-20762581D01*
X8386886Y-20781629D01*
X8396410Y-20791152D01*
X8415457Y-20800676D01*
X8453552Y-20800676D01*
X8472600Y-20791152D01*
X8482124Y-20781629D01*
X8491648Y-20762581D01*
X8491648Y-20714962D01*
X8482124Y-20695914D01*
X8472600Y-20686390D01*
X8453552Y-20676867D01*
X8415457Y-20676867D01*
X8396410Y-20686390D01*
X8386886Y-20695914D01*
X8377362Y-20714962D01*
X8577362Y-20800676D02*
X8577362Y-20667343D01*
X8577362Y-20686390D02*
X8586886Y-20676867D01*
X8605933Y-20667343D01*
X8634505Y-20667343D01*
X8653552Y-20676867D01*
X8663076Y-20695914D01*
X8663076Y-20800676D01*
X8663076Y-20695914D02*
X8672600Y-20676867D01*
X8691648Y-20667343D01*
X8720219Y-20667343D01*
X8739267Y-20676867D01*
X8748790Y-20695914D01*
X8748790Y-20800676D01*
X8844029Y-20800676D02*
X8844029Y-20667343D01*
X8844029Y-20686390D02*
X8853552Y-20676867D01*
X8872600Y-20667343D01*
X8901171Y-20667343D01*
X8920219Y-20676867D01*
X8929743Y-20695914D01*
X8929743Y-20800676D01*
X8929743Y-20695914D02*
X8939267Y-20676867D01*
X8958314Y-20667343D01*
X8986886Y-20667343D01*
X9005933Y-20676867D01*
X9015457Y-20695914D01*
X9015457Y-20800676D01*
X9405933Y-20591152D02*
X9234505Y-20848295D01*
X9663076Y-20600676D02*
X9682124Y-20600676D01*
X9701171Y-20610200D01*
X9710695Y-20619724D01*
X9720219Y-20638771D01*
X9729743Y-20676867D01*
X9729743Y-20724486D01*
X9720219Y-20762581D01*
X9710695Y-20781629D01*
X9701171Y-20791152D01*
X9682124Y-20800676D01*
X9663076Y-20800676D01*
X9644029Y-20791152D01*
X9634505Y-20781629D01*
X9624981Y-20762581D01*
X9615457Y-20724486D01*
X9615457Y-20676867D01*
X9624981Y-20638771D01*
X9634505Y-20619724D01*
X9644029Y-20610200D01*
X9663076Y-20600676D01*
X9815457Y-20781629D02*
X9824981Y-20791152D01*
X9815457Y-20800676D01*
X9805933Y-20791152D01*
X9815457Y-20781629D01*
X9815457Y-20800676D01*
X9948790Y-20600676D02*
X9967838Y-20600676D01*
X9986886Y-20610200D01*
X9996410Y-20619724D01*
X10005933Y-20638771D01*
X10015457Y-20676867D01*
X10015457Y-20724486D01*
X10005933Y-20762581D01*
X9996410Y-20781629D01*
X9986886Y-20791152D01*
X9967838Y-20800676D01*
X9948790Y-20800676D01*
X9929743Y-20791152D01*
X9920219Y-20781629D01*
X9910695Y-20762581D01*
X9901171Y-20724486D01*
X9901171Y-20676867D01*
X9910695Y-20638771D01*
X9920219Y-20619724D01*
X9929743Y-20610200D01*
X9948790Y-20600676D01*
X10186886Y-20667343D02*
X10186886Y-20800676D01*
X10139267Y-20591152D02*
X10091648Y-20734010D01*
X10215457Y-20734010D01*
X10329743Y-20600676D02*
X10348790Y-20600676D01*
X10367838Y-20610200D01*
X10377362Y-20619724D01*
X10386886Y-20638771D01*
X10396410Y-20676867D01*
X10396410Y-20724486D01*
X10386886Y-20762581D01*
X10377362Y-20781629D01*
X10367838Y-20791152D01*
X10348790Y-20800676D01*
X10329743Y-20800676D01*
X10310695Y-20791152D01*
X10301171Y-20781629D01*
X10291648Y-20762581D01*
X10282124Y-20724486D01*
X10282124Y-20676867D01*
X10291648Y-20638771D01*
X10301171Y-20619724D01*
X10310695Y-20610200D01*
X10329743Y-20600676D01*
X10520219Y-20600676D02*
X10539267Y-20600676D01*
X10558314Y-20610200D01*
X10567838Y-20619724D01*
X10577362Y-20638771D01*
X10586886Y-20676867D01*
X10586886Y-20724486D01*
X10577362Y-20762581D01*
X10567838Y-20781629D01*
X10558314Y-20791152D01*
X10539267Y-20800676D01*
X10520219Y-20800676D01*
X10501171Y-20791152D01*
X10491648Y-20781629D01*
X10482124Y-20762581D01*
X10472600Y-20724486D01*
X10472600Y-20676867D01*
X10482124Y-20638771D01*
X10491648Y-20619724D01*
X10501171Y-20610200D01*
X10520219Y-20600676D01*
X10663076Y-20600676D02*
X10663076Y-20638771D01*
X10739267Y-20600676D02*
X10739267Y-20638771D01*
X11034505Y-20876867D02*
X11024981Y-20867343D01*
X11005933Y-20838771D01*
X10996410Y-20819724D01*
X10986886Y-20791152D01*
X10977362Y-20743533D01*
X10977362Y-20705438D01*
X10986886Y-20657819D01*
X10996410Y-20629248D01*
X11005933Y-20610200D01*
X11024981Y-20581629D01*
X11034505Y-20572105D01*
X11101171Y-20619724D02*
X11110695Y-20610200D01*
X11129743Y-20600676D01*
X11177362Y-20600676D01*
X11196409Y-20610200D01*
X11205933Y-20619724D01*
X11215457Y-20638771D01*
X11215457Y-20657819D01*
X11205933Y-20686390D01*
X11091648Y-20800676D01*
X11215457Y-20800676D01*
X11386886Y-20667343D02*
X11386886Y-20800676D01*
X11339267Y-20591152D02*
X11291648Y-20734010D01*
X11415457Y-20734010D01*
X11644028Y-20800676D02*
X11644028Y-20600676D01*
X11729743Y-20800676D02*
X11729743Y-20695914D01*
X11720219Y-20676867D01*
X11701171Y-20667343D01*
X11672600Y-20667343D01*
X11653552Y-20676867D01*
X11644028Y-20686390D01*
X11853552Y-20800676D02*
X11834505Y-20791152D01*
X11824981Y-20781629D01*
X11815457Y-20762581D01*
X11815457Y-20705438D01*
X11824981Y-20686390D01*
X11834505Y-20676867D01*
X11853552Y-20667343D01*
X11882124Y-20667343D01*
X11901171Y-20676867D01*
X11910695Y-20686390D01*
X11920219Y-20705438D01*
X11920219Y-20762581D01*
X11910695Y-20781629D01*
X11901171Y-20791152D01*
X11882124Y-20800676D01*
X11853552Y-20800676D01*
X12034505Y-20800676D02*
X12015457Y-20791152D01*
X12005933Y-20772105D01*
X12005933Y-20600676D01*
X12186886Y-20791152D02*
X12167838Y-20800676D01*
X12129743Y-20800676D01*
X12110695Y-20791152D01*
X12101171Y-20772105D01*
X12101171Y-20695914D01*
X12110695Y-20676867D01*
X12129743Y-20667343D01*
X12167838Y-20667343D01*
X12186886Y-20676867D01*
X12196409Y-20695914D01*
X12196409Y-20714962D01*
X12101171Y-20734010D01*
X12272600Y-20791152D02*
X12291648Y-20800676D01*
X12329743Y-20800676D01*
X12348790Y-20791152D01*
X12358314Y-20772105D01*
X12358314Y-20762581D01*
X12348790Y-20743533D01*
X12329743Y-20734010D01*
X12301171Y-20734010D01*
X12282124Y-20724486D01*
X12272600Y-20705438D01*
X12272600Y-20695914D01*
X12282124Y-20676867D01*
X12301171Y-20667343D01*
X12329743Y-20667343D01*
X12348790Y-20676867D01*
X12424981Y-20876867D02*
X12434505Y-20867343D01*
X12453552Y-20838771D01*
X12463076Y-20819724D01*
X12472600Y-20791152D01*
X12482124Y-20743533D01*
X12482124Y-20705438D01*
X12472600Y-20657819D01*
X12463076Y-20629248D01*
X12453552Y-20610200D01*
X12434505Y-20581629D01*
X12424981Y-20572105D01*
D17*
X7352600Y-20919200D02*
X7462600Y-21029200D01*
X7462600Y-20919200D02*
X7352600Y-21029200D01*
X7407600Y-20919200D02*
X7407600Y-21029200D01*
X7352600Y-20974200D02*
X7462600Y-20974200D01*
D11*
X7824981Y-21064676D02*
X7710695Y-21064676D01*
X7767838Y-21064676D02*
X7767838Y-20864676D01*
X7748790Y-20893248D01*
X7729743Y-20912295D01*
X7710695Y-20921819D01*
X7910695Y-21045629D02*
X7920219Y-21055152D01*
X7910695Y-21064676D01*
X7901171Y-21055152D01*
X7910695Y-21045629D01*
X7910695Y-21064676D01*
X8110695Y-21064676D02*
X7996409Y-21064676D01*
X8053552Y-21064676D02*
X8053552Y-20864676D01*
X8034505Y-20893248D01*
X8015457Y-20912295D01*
X7996409Y-20921819D01*
X8234505Y-20864676D02*
X8253552Y-20864676D01*
X8272600Y-20874200D01*
X8282124Y-20883724D01*
X8291648Y-20902771D01*
X8301171Y-20940867D01*
X8301171Y-20988486D01*
X8291648Y-21026581D01*
X8282124Y-21045629D01*
X8272600Y-21055152D01*
X8253552Y-21064676D01*
X8234505Y-21064676D01*
X8215457Y-21055152D01*
X8205933Y-21045629D01*
X8196409Y-21026581D01*
X8186886Y-20988486D01*
X8186886Y-20940867D01*
X8196409Y-20902771D01*
X8205933Y-20883724D01*
X8215457Y-20874200D01*
X8234505Y-20864676D01*
X8424981Y-20864676D02*
X8444029Y-20864676D01*
X8463076Y-20874200D01*
X8472600Y-20883724D01*
X8482124Y-20902771D01*
X8491648Y-20940867D01*
X8491648Y-20988486D01*
X8482124Y-21026581D01*
X8472600Y-21045629D01*
X8463076Y-21055152D01*
X8444029Y-21064676D01*
X8424981Y-21064676D01*
X8405933Y-21055152D01*
X8396410Y-21045629D01*
X8386886Y-21026581D01*
X8377362Y-20988486D01*
X8377362Y-20940867D01*
X8386886Y-20902771D01*
X8396410Y-20883724D01*
X8405933Y-20874200D01*
X8424981Y-20864676D01*
X8577362Y-21064676D02*
X8577362Y-20931343D01*
X8577362Y-20950390D02*
X8586886Y-20940867D01*
X8605933Y-20931343D01*
X8634505Y-20931343D01*
X8653552Y-20940867D01*
X8663076Y-20959914D01*
X8663076Y-21064676D01*
X8663076Y-20959914D02*
X8672600Y-20940867D01*
X8691648Y-20931343D01*
X8720219Y-20931343D01*
X8739267Y-20940867D01*
X8748790Y-20959914D01*
X8748790Y-21064676D01*
X8844029Y-21064676D02*
X8844029Y-20931343D01*
X8844029Y-20950390D02*
X8853552Y-20940867D01*
X8872600Y-20931343D01*
X8901171Y-20931343D01*
X8920219Y-20940867D01*
X8929743Y-20959914D01*
X8929743Y-21064676D01*
X8929743Y-20959914D02*
X8939267Y-20940867D01*
X8958314Y-20931343D01*
X8986886Y-20931343D01*
X9005933Y-20940867D01*
X9015457Y-20959914D01*
X9015457Y-21064676D01*
X9405933Y-20855152D02*
X9234505Y-21112295D01*
X9663076Y-20864676D02*
X9682124Y-20864676D01*
X9701171Y-20874200D01*
X9710695Y-20883724D01*
X9720219Y-20902771D01*
X9729743Y-20940867D01*
X9729743Y-20988486D01*
X9720219Y-21026581D01*
X9710695Y-21045629D01*
X9701171Y-21055152D01*
X9682124Y-21064676D01*
X9663076Y-21064676D01*
X9644029Y-21055152D01*
X9634505Y-21045629D01*
X9624981Y-21026581D01*
X9615457Y-20988486D01*
X9615457Y-20940867D01*
X9624981Y-20902771D01*
X9634505Y-20883724D01*
X9644029Y-20874200D01*
X9663076Y-20864676D01*
X9815457Y-21045629D02*
X9824981Y-21055152D01*
X9815457Y-21064676D01*
X9805933Y-21055152D01*
X9815457Y-21045629D01*
X9815457Y-21064676D01*
X9948790Y-20864676D02*
X9967838Y-20864676D01*
X9986886Y-20874200D01*
X9996410Y-20883724D01*
X10005933Y-20902771D01*
X10015457Y-20940867D01*
X10015457Y-20988486D01*
X10005933Y-21026581D01*
X9996410Y-21045629D01*
X9986886Y-21055152D01*
X9967838Y-21064676D01*
X9948790Y-21064676D01*
X9929743Y-21055152D01*
X9920219Y-21045629D01*
X9910695Y-21026581D01*
X9901171Y-20988486D01*
X9901171Y-20940867D01*
X9910695Y-20902771D01*
X9920219Y-20883724D01*
X9929743Y-20874200D01*
X9948790Y-20864676D01*
X10186886Y-20931343D02*
X10186886Y-21064676D01*
X10139267Y-20855152D02*
X10091648Y-20998010D01*
X10215457Y-20998010D01*
X10272600Y-20864676D02*
X10396410Y-20864676D01*
X10329743Y-20940867D01*
X10358314Y-20940867D01*
X10377362Y-20950390D01*
X10386886Y-20959914D01*
X10396410Y-20978962D01*
X10396410Y-21026581D01*
X10386886Y-21045629D01*
X10377362Y-21055152D01*
X10358314Y-21064676D01*
X10301171Y-21064676D01*
X10282124Y-21055152D01*
X10272600Y-21045629D01*
X10463076Y-20864676D02*
X10586886Y-20864676D01*
X10520219Y-20940867D01*
X10548790Y-20940867D01*
X10567838Y-20950390D01*
X10577362Y-20959914D01*
X10586886Y-20978962D01*
X10586886Y-21026581D01*
X10577362Y-21045629D01*
X10567838Y-21055152D01*
X10548790Y-21064676D01*
X10491648Y-21064676D01*
X10472600Y-21055152D01*
X10463076Y-21045629D01*
X10663076Y-20864676D02*
X10663076Y-20902771D01*
X10739267Y-20864676D02*
X10739267Y-20902771D01*
X11034505Y-21140867D02*
X11024981Y-21131343D01*
X11005933Y-21102771D01*
X10996410Y-21083724D01*
X10986886Y-21055152D01*
X10977362Y-21007533D01*
X10977362Y-20969438D01*
X10986886Y-20921819D01*
X10996410Y-20893248D01*
X11005933Y-20874200D01*
X11024981Y-20845629D01*
X11034505Y-20836105D01*
X11091648Y-20864676D02*
X11215457Y-20864676D01*
X11148790Y-20940867D01*
X11177362Y-20940867D01*
X11196409Y-20950390D01*
X11205933Y-20959914D01*
X11215457Y-20978962D01*
X11215457Y-21026581D01*
X11205933Y-21045629D01*
X11196409Y-21055152D01*
X11177362Y-21064676D01*
X11120219Y-21064676D01*
X11101171Y-21055152D01*
X11091648Y-21045629D01*
X11453552Y-21064676D02*
X11453552Y-20864676D01*
X11539267Y-21064676D02*
X11539267Y-20959914D01*
X11529743Y-20940867D01*
X11510695Y-20931343D01*
X11482124Y-20931343D01*
X11463076Y-20940867D01*
X11453552Y-20950390D01*
X11663076Y-21064676D02*
X11644028Y-21055152D01*
X11634505Y-21045629D01*
X11624981Y-21026581D01*
X11624981Y-20969438D01*
X11634505Y-20950390D01*
X11644028Y-20940867D01*
X11663076Y-20931343D01*
X11691648Y-20931343D01*
X11710695Y-20940867D01*
X11720219Y-20950390D01*
X11729743Y-20969438D01*
X11729743Y-21026581D01*
X11720219Y-21045629D01*
X11710695Y-21055152D01*
X11691648Y-21064676D01*
X11663076Y-21064676D01*
X11844028Y-21064676D02*
X11824981Y-21055152D01*
X11815457Y-21036105D01*
X11815457Y-20864676D01*
X11996409Y-21055152D02*
X11977362Y-21064676D01*
X11939267Y-21064676D01*
X11920219Y-21055152D01*
X11910695Y-21036105D01*
X11910695Y-20959914D01*
X11920219Y-20940867D01*
X11939267Y-20931343D01*
X11977362Y-20931343D01*
X11996409Y-20940867D01*
X12005933Y-20959914D01*
X12005933Y-20978962D01*
X11910695Y-20998010D01*
X12082124Y-21055152D02*
X12101171Y-21064676D01*
X12139267Y-21064676D01*
X12158314Y-21055152D01*
X12167838Y-21036105D01*
X12167838Y-21026581D01*
X12158314Y-21007533D01*
X12139267Y-20998010D01*
X12110695Y-20998010D01*
X12091648Y-20988486D01*
X12082124Y-20969438D01*
X12082124Y-20959914D01*
X12091648Y-20940867D01*
X12110695Y-20931343D01*
X12139267Y-20931343D01*
X12158314Y-20940867D01*
X12234505Y-21140867D02*
X12244028Y-21131343D01*
X12263076Y-21102771D01*
X12272600Y-21083724D01*
X12282124Y-21055152D01*
X12291648Y-21007533D01*
X12291648Y-20969438D01*
X12282124Y-20921819D01*
X12272600Y-20893248D01*
X12263076Y-20874200D01*
X12244028Y-20845629D01*
X12234505Y-20836105D01*
D18*
X7330600Y-21172200D02*
X7462600Y-21304200D01*
X7462600Y-21172200D02*
X7330600Y-21304200D01*
X7443269Y-21284870D02*
X7443269Y-21191531D01*
X7349930Y-21191531D01*
X7349930Y-21284870D01*
X7443269Y-21284870D01*
D11*
X7824981Y-21328676D02*
X7710695Y-21328676D01*
X7767838Y-21328676D02*
X7767838Y-21128676D01*
X7748790Y-21157248D01*
X7729743Y-21176295D01*
X7710695Y-21185819D01*
X7910695Y-21309629D02*
X7920219Y-21319152D01*
X7910695Y-21328676D01*
X7901171Y-21319152D01*
X7910695Y-21309629D01*
X7910695Y-21328676D01*
X7986886Y-21128676D02*
X8110695Y-21128676D01*
X8044028Y-21204867D01*
X8072600Y-21204867D01*
X8091648Y-21214390D01*
X8101171Y-21223914D01*
X8110695Y-21242962D01*
X8110695Y-21290581D01*
X8101171Y-21309629D01*
X8091648Y-21319152D01*
X8072600Y-21328676D01*
X8015457Y-21328676D01*
X7996409Y-21319152D01*
X7986886Y-21309629D01*
X8186886Y-21147724D02*
X8196409Y-21138200D01*
X8215457Y-21128676D01*
X8263076Y-21128676D01*
X8282124Y-21138200D01*
X8291648Y-21147724D01*
X8301171Y-21166771D01*
X8301171Y-21185819D01*
X8291648Y-21214390D01*
X8177362Y-21328676D01*
X8301171Y-21328676D01*
X8424981Y-21128676D02*
X8444029Y-21128676D01*
X8463076Y-21138200D01*
X8472600Y-21147724D01*
X8482124Y-21166771D01*
X8491648Y-21204867D01*
X8491648Y-21252486D01*
X8482124Y-21290581D01*
X8472600Y-21309629D01*
X8463076Y-21319152D01*
X8444029Y-21328676D01*
X8424981Y-21328676D01*
X8405933Y-21319152D01*
X8396410Y-21309629D01*
X8386886Y-21290581D01*
X8377362Y-21252486D01*
X8377362Y-21204867D01*
X8386886Y-21166771D01*
X8396410Y-21147724D01*
X8405933Y-21138200D01*
X8424981Y-21128676D01*
X8577362Y-21328676D02*
X8577362Y-21195343D01*
X8577362Y-21214390D02*
X8586886Y-21204867D01*
X8605933Y-21195343D01*
X8634505Y-21195343D01*
X8653552Y-21204867D01*
X8663076Y-21223914D01*
X8663076Y-21328676D01*
X8663076Y-21223914D02*
X8672600Y-21204867D01*
X8691648Y-21195343D01*
X8720219Y-21195343D01*
X8739267Y-21204867D01*
X8748790Y-21223914D01*
X8748790Y-21328676D01*
X8844029Y-21328676D02*
X8844029Y-21195343D01*
X8844029Y-21214390D02*
X8853552Y-21204867D01*
X8872600Y-21195343D01*
X8901171Y-21195343D01*
X8920219Y-21204867D01*
X8929743Y-21223914D01*
X8929743Y-21328676D01*
X8929743Y-21223914D02*
X8939267Y-21204867D01*
X8958314Y-21195343D01*
X8986886Y-21195343D01*
X9005933Y-21204867D01*
X9015457Y-21223914D01*
X9015457Y-21328676D01*
X9405933Y-21119152D02*
X9234505Y-21376295D01*
X9663076Y-21128676D02*
X9682124Y-21128676D01*
X9701171Y-21138200D01*
X9710695Y-21147724D01*
X9720219Y-21166771D01*
X9729743Y-21204867D01*
X9729743Y-21252486D01*
X9720219Y-21290581D01*
X9710695Y-21309629D01*
X9701171Y-21319152D01*
X9682124Y-21328676D01*
X9663076Y-21328676D01*
X9644029Y-21319152D01*
X9634505Y-21309629D01*
X9624981Y-21290581D01*
X9615457Y-21252486D01*
X9615457Y-21204867D01*
X9624981Y-21166771D01*
X9634505Y-21147724D01*
X9644029Y-21138200D01*
X9663076Y-21128676D01*
X9815457Y-21309629D02*
X9824981Y-21319152D01*
X9815457Y-21328676D01*
X9805933Y-21319152D01*
X9815457Y-21309629D01*
X9815457Y-21328676D01*
X9948790Y-21128676D02*
X9967838Y-21128676D01*
X9986886Y-21138200D01*
X9996410Y-21147724D01*
X10005933Y-21166771D01*
X10015457Y-21204867D01*
X10015457Y-21252486D01*
X10005933Y-21290581D01*
X9996410Y-21309629D01*
X9986886Y-21319152D01*
X9967838Y-21328676D01*
X9948790Y-21328676D01*
X9929743Y-21319152D01*
X9920219Y-21309629D01*
X9910695Y-21290581D01*
X9901171Y-21252486D01*
X9901171Y-21204867D01*
X9910695Y-21166771D01*
X9920219Y-21147724D01*
X9929743Y-21138200D01*
X9948790Y-21128676D01*
X10196410Y-21128676D02*
X10101171Y-21128676D01*
X10091648Y-21223914D01*
X10101171Y-21214390D01*
X10120219Y-21204867D01*
X10167838Y-21204867D01*
X10186886Y-21214390D01*
X10196410Y-21223914D01*
X10205933Y-21242962D01*
X10205933Y-21290581D01*
X10196410Y-21309629D01*
X10186886Y-21319152D01*
X10167838Y-21328676D01*
X10120219Y-21328676D01*
X10101171Y-21319152D01*
X10091648Y-21309629D01*
X10282124Y-21147724D02*
X10291648Y-21138200D01*
X10310695Y-21128676D01*
X10358314Y-21128676D01*
X10377362Y-21138200D01*
X10386886Y-21147724D01*
X10396410Y-21166771D01*
X10396410Y-21185819D01*
X10386886Y-21214390D01*
X10272600Y-21328676D01*
X10396410Y-21328676D01*
X10520219Y-21128676D02*
X10539267Y-21128676D01*
X10558314Y-21138200D01*
X10567838Y-21147724D01*
X10577362Y-21166771D01*
X10586886Y-21204867D01*
X10586886Y-21252486D01*
X10577362Y-21290581D01*
X10567838Y-21309629D01*
X10558314Y-21319152D01*
X10539267Y-21328676D01*
X10520219Y-21328676D01*
X10501171Y-21319152D01*
X10491648Y-21309629D01*
X10482124Y-21290581D01*
X10472600Y-21252486D01*
X10472600Y-21204867D01*
X10482124Y-21166771D01*
X10491648Y-21147724D01*
X10501171Y-21138200D01*
X10520219Y-21128676D01*
X10663076Y-21128676D02*
X10663076Y-21166771D01*
X10739267Y-21128676D02*
X10739267Y-21166771D01*
X11034505Y-21404867D02*
X11024981Y-21395343D01*
X11005933Y-21366771D01*
X10996410Y-21347724D01*
X10986886Y-21319152D01*
X10977362Y-21271533D01*
X10977362Y-21233438D01*
X10986886Y-21185819D01*
X10996410Y-21157248D01*
X11005933Y-21138200D01*
X11024981Y-21109629D01*
X11034505Y-21100105D01*
X11091648Y-21128676D02*
X11215457Y-21128676D01*
X11148790Y-21204867D01*
X11177362Y-21204867D01*
X11196409Y-21214390D01*
X11205933Y-21223914D01*
X11215457Y-21242962D01*
X11215457Y-21290581D01*
X11205933Y-21309629D01*
X11196409Y-21319152D01*
X11177362Y-21328676D01*
X11120219Y-21328676D01*
X11101171Y-21319152D01*
X11091648Y-21309629D01*
X11453552Y-21328676D02*
X11453552Y-21128676D01*
X11539267Y-21328676D02*
X11539267Y-21223914D01*
X11529743Y-21204867D01*
X11510695Y-21195343D01*
X11482124Y-21195343D01*
X11463076Y-21204867D01*
X11453552Y-21214390D01*
X11663076Y-21328676D02*
X11644028Y-21319152D01*
X11634505Y-21309629D01*
X11624981Y-21290581D01*
X11624981Y-21233438D01*
X11634505Y-21214390D01*
X11644028Y-21204867D01*
X11663076Y-21195343D01*
X11691648Y-21195343D01*
X11710695Y-21204867D01*
X11720219Y-21214390D01*
X11729743Y-21233438D01*
X11729743Y-21290581D01*
X11720219Y-21309629D01*
X11710695Y-21319152D01*
X11691648Y-21328676D01*
X11663076Y-21328676D01*
X11844028Y-21328676D02*
X11824981Y-21319152D01*
X11815457Y-21300105D01*
X11815457Y-21128676D01*
X11996409Y-21319152D02*
X11977362Y-21328676D01*
X11939267Y-21328676D01*
X11920219Y-21319152D01*
X11910695Y-21300105D01*
X11910695Y-21223914D01*
X11920219Y-21204867D01*
X11939267Y-21195343D01*
X11977362Y-21195343D01*
X11996409Y-21204867D01*
X12005933Y-21223914D01*
X12005933Y-21242962D01*
X11910695Y-21262010D01*
X12082124Y-21319152D02*
X12101171Y-21328676D01*
X12139267Y-21328676D01*
X12158314Y-21319152D01*
X12167838Y-21300105D01*
X12167838Y-21290581D01*
X12158314Y-21271533D01*
X12139267Y-21262010D01*
X12110695Y-21262010D01*
X12091648Y-21252486D01*
X12082124Y-21233438D01*
X12082124Y-21223914D01*
X12091648Y-21204867D01*
X12110695Y-21195343D01*
X12139267Y-21195343D01*
X12158314Y-21204867D01*
X12234505Y-21404867D02*
X12244028Y-21395343D01*
X12263076Y-21366771D01*
X12272600Y-21347724D01*
X12282124Y-21319152D01*
X12291648Y-21271533D01*
X12291648Y-21233438D01*
X12282124Y-21185819D01*
X12272600Y-21157248D01*
X12263076Y-21138200D01*
X12244028Y-21109629D01*
X12234505Y-21100105D01*
D19*
X7310600Y-21426200D02*
X7462600Y-21578200D01*
X7462600Y-21426200D02*
X7310600Y-21578200D01*
X7386600Y-21578200D02*
X7462600Y-21502200D01*
X7386600Y-21426200D01*
X7310600Y-21502200D01*
X7386600Y-21578200D01*
D11*
X7824981Y-21592676D02*
X7710695Y-21592676D01*
X7767838Y-21592676D02*
X7767838Y-21392676D01*
X7748790Y-21421248D01*
X7729743Y-21440295D01*
X7710695Y-21449819D01*
X7910695Y-21573629D02*
X7920219Y-21583152D01*
X7910695Y-21592676D01*
X7901171Y-21583152D01*
X7910695Y-21573629D01*
X7910695Y-21592676D01*
X8101171Y-21392676D02*
X8005933Y-21392676D01*
X7996409Y-21487914D01*
X8005933Y-21478390D01*
X8024981Y-21468867D01*
X8072600Y-21468867D01*
X8091648Y-21478390D01*
X8101171Y-21487914D01*
X8110695Y-21506962D01*
X8110695Y-21554581D01*
X8101171Y-21573629D01*
X8091648Y-21583152D01*
X8072600Y-21592676D01*
X8024981Y-21592676D01*
X8005933Y-21583152D01*
X7996409Y-21573629D01*
X8186886Y-21411724D02*
X8196409Y-21402200D01*
X8215457Y-21392676D01*
X8263076Y-21392676D01*
X8282124Y-21402200D01*
X8291648Y-21411724D01*
X8301171Y-21430771D01*
X8301171Y-21449819D01*
X8291648Y-21478390D01*
X8177362Y-21592676D01*
X8301171Y-21592676D01*
X8424981Y-21392676D02*
X8444029Y-21392676D01*
X8463076Y-21402200D01*
X8472600Y-21411724D01*
X8482124Y-21430771D01*
X8491648Y-21468867D01*
X8491648Y-21516486D01*
X8482124Y-21554581D01*
X8472600Y-21573629D01*
X8463076Y-21583152D01*
X8444029Y-21592676D01*
X8424981Y-21592676D01*
X8405933Y-21583152D01*
X8396410Y-21573629D01*
X8386886Y-21554581D01*
X8377362Y-21516486D01*
X8377362Y-21468867D01*
X8386886Y-21430771D01*
X8396410Y-21411724D01*
X8405933Y-21402200D01*
X8424981Y-21392676D01*
X8577362Y-21592676D02*
X8577362Y-21459343D01*
X8577362Y-21478390D02*
X8586886Y-21468867D01*
X8605933Y-21459343D01*
X8634505Y-21459343D01*
X8653552Y-21468867D01*
X8663076Y-21487914D01*
X8663076Y-21592676D01*
X8663076Y-21487914D02*
X8672600Y-21468867D01*
X8691648Y-21459343D01*
X8720219Y-21459343D01*
X8739267Y-21468867D01*
X8748790Y-21487914D01*
X8748790Y-21592676D01*
X8844029Y-21592676D02*
X8844029Y-21459343D01*
X8844029Y-21478390D02*
X8853552Y-21468867D01*
X8872600Y-21459343D01*
X8901171Y-21459343D01*
X8920219Y-21468867D01*
X8929743Y-21487914D01*
X8929743Y-21592676D01*
X8929743Y-21487914D02*
X8939267Y-21468867D01*
X8958314Y-21459343D01*
X8986886Y-21459343D01*
X9005933Y-21468867D01*
X9015457Y-21487914D01*
X9015457Y-21592676D01*
X9405933Y-21383152D02*
X9234505Y-21640295D01*
X9663076Y-21392676D02*
X9682124Y-21392676D01*
X9701171Y-21402200D01*
X9710695Y-21411724D01*
X9720219Y-21430771D01*
X9729743Y-21468867D01*
X9729743Y-21516486D01*
X9720219Y-21554581D01*
X9710695Y-21573629D01*
X9701171Y-21583152D01*
X9682124Y-21592676D01*
X9663076Y-21592676D01*
X9644029Y-21583152D01*
X9634505Y-21573629D01*
X9624981Y-21554581D01*
X9615457Y-21516486D01*
X9615457Y-21468867D01*
X9624981Y-21430771D01*
X9634505Y-21411724D01*
X9644029Y-21402200D01*
X9663076Y-21392676D01*
X9815457Y-21573629D02*
X9824981Y-21583152D01*
X9815457Y-21592676D01*
X9805933Y-21583152D01*
X9815457Y-21573629D01*
X9815457Y-21592676D01*
X9948790Y-21392676D02*
X9967838Y-21392676D01*
X9986886Y-21402200D01*
X9996410Y-21411724D01*
X10005933Y-21430771D01*
X10015457Y-21468867D01*
X10015457Y-21516486D01*
X10005933Y-21554581D01*
X9996410Y-21573629D01*
X9986886Y-21583152D01*
X9967838Y-21592676D01*
X9948790Y-21592676D01*
X9929743Y-21583152D01*
X9920219Y-21573629D01*
X9910695Y-21554581D01*
X9901171Y-21516486D01*
X9901171Y-21468867D01*
X9910695Y-21430771D01*
X9920219Y-21411724D01*
X9929743Y-21402200D01*
X9948790Y-21392676D01*
X10196410Y-21392676D02*
X10101171Y-21392676D01*
X10091648Y-21487914D01*
X10101171Y-21478390D01*
X10120219Y-21468867D01*
X10167838Y-21468867D01*
X10186886Y-21478390D01*
X10196410Y-21487914D01*
X10205933Y-21506962D01*
X10205933Y-21554581D01*
X10196410Y-21573629D01*
X10186886Y-21583152D01*
X10167838Y-21592676D01*
X10120219Y-21592676D01*
X10101171Y-21583152D01*
X10091648Y-21573629D01*
X10301171Y-21592676D02*
X10339267Y-21592676D01*
X10358314Y-21583152D01*
X10367838Y-21573629D01*
X10386886Y-21545057D01*
X10396410Y-21506962D01*
X10396410Y-21430771D01*
X10386886Y-21411724D01*
X10377362Y-21402200D01*
X10358314Y-21392676D01*
X10320219Y-21392676D01*
X10301171Y-21402200D01*
X10291648Y-21411724D01*
X10282124Y-21430771D01*
X10282124Y-21478390D01*
X10291648Y-21497438D01*
X10301171Y-21506962D01*
X10320219Y-21516486D01*
X10358314Y-21516486D01*
X10377362Y-21506962D01*
X10386886Y-21497438D01*
X10396410Y-21478390D01*
X10510695Y-21478390D02*
X10491648Y-21468867D01*
X10482124Y-21459343D01*
X10472600Y-21440295D01*
X10472600Y-21430771D01*
X10482124Y-21411724D01*
X10491648Y-21402200D01*
X10510695Y-21392676D01*
X10548790Y-21392676D01*
X10567838Y-21402200D01*
X10577362Y-21411724D01*
X10586886Y-21430771D01*
X10586886Y-21440295D01*
X10577362Y-21459343D01*
X10567838Y-21468867D01*
X10548790Y-21478390D01*
X10510695Y-21478390D01*
X10491648Y-21487914D01*
X10482124Y-21497438D01*
X10472600Y-21516486D01*
X10472600Y-21554581D01*
X10482124Y-21573629D01*
X10491648Y-21583152D01*
X10510695Y-21592676D01*
X10548790Y-21592676D01*
X10567838Y-21583152D01*
X10577362Y-21573629D01*
X10586886Y-21554581D01*
X10586886Y-21516486D01*
X10577362Y-21497438D01*
X10567838Y-21487914D01*
X10548790Y-21478390D01*
X10663076Y-21392676D02*
X10663076Y-21430771D01*
X10739267Y-21392676D02*
X10739267Y-21430771D01*
X11034505Y-21668867D02*
X11024981Y-21659343D01*
X11005933Y-21630771D01*
X10996410Y-21611724D01*
X10986886Y-21583152D01*
X10977362Y-21535533D01*
X10977362Y-21497438D01*
X10986886Y-21449819D01*
X10996410Y-21421248D01*
X11005933Y-21402200D01*
X11024981Y-21373629D01*
X11034505Y-21364105D01*
X11139267Y-21478390D02*
X11120219Y-21468867D01*
X11110695Y-21459343D01*
X11101171Y-21440295D01*
X11101171Y-21430771D01*
X11110695Y-21411724D01*
X11120219Y-21402200D01*
X11139267Y-21392676D01*
X11177362Y-21392676D01*
X11196409Y-21402200D01*
X11205933Y-21411724D01*
X11215457Y-21430771D01*
X11215457Y-21440295D01*
X11205933Y-21459343D01*
X11196409Y-21468867D01*
X11177362Y-21478390D01*
X11139267Y-21478390D01*
X11120219Y-21487914D01*
X11110695Y-21497438D01*
X11101171Y-21516486D01*
X11101171Y-21554581D01*
X11110695Y-21573629D01*
X11120219Y-21583152D01*
X11139267Y-21592676D01*
X11177362Y-21592676D01*
X11196409Y-21583152D01*
X11205933Y-21573629D01*
X11215457Y-21554581D01*
X11215457Y-21516486D01*
X11205933Y-21497438D01*
X11196409Y-21487914D01*
X11177362Y-21478390D01*
X11453552Y-21592676D02*
X11453552Y-21392676D01*
X11539267Y-21592676D02*
X11539267Y-21487914D01*
X11529743Y-21468867D01*
X11510695Y-21459343D01*
X11482124Y-21459343D01*
X11463076Y-21468867D01*
X11453552Y-21478390D01*
X11663076Y-21592676D02*
X11644028Y-21583152D01*
X11634505Y-21573629D01*
X11624981Y-21554581D01*
X11624981Y-21497438D01*
X11634505Y-21478390D01*
X11644028Y-21468867D01*
X11663076Y-21459343D01*
X11691648Y-21459343D01*
X11710695Y-21468867D01*
X11720219Y-21478390D01*
X11729743Y-21497438D01*
X11729743Y-21554581D01*
X11720219Y-21573629D01*
X11710695Y-21583152D01*
X11691648Y-21592676D01*
X11663076Y-21592676D01*
X11844028Y-21592676D02*
X11824981Y-21583152D01*
X11815457Y-21564105D01*
X11815457Y-21392676D01*
X11996409Y-21583152D02*
X11977362Y-21592676D01*
X11939267Y-21592676D01*
X11920219Y-21583152D01*
X11910695Y-21564105D01*
X11910695Y-21487914D01*
X11920219Y-21468867D01*
X11939267Y-21459343D01*
X11977362Y-21459343D01*
X11996409Y-21468867D01*
X12005933Y-21487914D01*
X12005933Y-21506962D01*
X11910695Y-21526010D01*
X12082124Y-21583152D02*
X12101171Y-21592676D01*
X12139267Y-21592676D01*
X12158314Y-21583152D01*
X12167838Y-21564105D01*
X12167838Y-21554581D01*
X12158314Y-21535533D01*
X12139267Y-21526010D01*
X12110695Y-21526010D01*
X12091648Y-21516486D01*
X12082124Y-21497438D01*
X12082124Y-21487914D01*
X12091648Y-21468867D01*
X12110695Y-21459343D01*
X12139267Y-21459343D01*
X12158314Y-21468867D01*
X12234505Y-21668867D02*
X12244028Y-21659343D01*
X12263076Y-21630771D01*
X12272600Y-21611724D01*
X12282124Y-21583152D01*
X12291648Y-21535533D01*
X12291648Y-21497438D01*
X12282124Y-21449819D01*
X12272600Y-21421248D01*
X12263076Y-21402200D01*
X12244028Y-21373629D01*
X12234505Y-21364105D01*
M02*
