M48
; DRILL file {KiCad (6.0.9)} date Fri Dec  2 11:03:30 2022
; FORMAT={-:-/ absolute / metric / decimal}
; #@! TF.CreationDate,2022-12-02T11:03:30-05:00
; #@! TF.GenerationSoftware,Kicad,Pcbnew,(6.0.9)
; #@! TF.FileFunction,Plated,1,2,PTH
FMAT,2
METRIC
; #@! TA.AperFunction,Plated,PTH,ComponentDrill
T1C0.750
; #@! TA.AperFunction,Plated,PTH,ComponentDrill
T2C0.800
; #@! TA.AperFunction,Plated,PTH,ComponentDrill
T3C0.900
; #@! TA.AperFunction,Plated,PTH,ComponentDrill
T4C0.950
; #@! TA.AperFunction,Plated,PTH,ComponentDrill
T5C1.000
; #@! TA.AperFunction,Plated,PTH,ComponentDrill
T6C1.016
; #@! TA.AperFunction,Plated,PTH,ComponentDrill
T7C1.100
; #@! TA.AperFunction,Plated,PTH,ComponentDrill
T8C1.320
; #@! TA.AperFunction,Plated,PTH,ComponentDrill
T9C1.520
%
G90
G05
T1
X88.033Y-120.931
X88.033Y-122.201
X88.033Y-123.471
X88.033Y-126.519
X88.033Y-127.789
X88.033Y-129.059
X88.037Y-132.209
X88.037Y-133.479
X88.037Y-134.749
X117.45Y-117.958
X118.72Y-117.958
X119.99Y-117.958
T2
X95.402Y-143.3
X95.402Y-148.3
X95.402Y-155.086
X95.402Y-160.086
T3
X81.077Y-120.752
X81.077Y-123.292
T4
X88.849Y-155.122
X88.849Y-157.622
X88.849Y-160.122
X88.9Y-143.307
X88.9Y-145.807
X88.9Y-148.307
T5
X81.077Y-114.678
X81.077Y-117.218
X81.077Y-126.848
X81.077Y-129.388
X83.363Y-105.793
X83.363Y-108.333
X85.903Y-105.793
X85.903Y-108.333
X88.443Y-105.793
X88.443Y-108.333
X90.983Y-105.793
X90.983Y-108.333
X93.523Y-105.793
X93.523Y-108.333
X95.758Y-114.784
X96.063Y-105.793
X96.063Y-108.333
X98.298Y-114.784
X98.603Y-105.793
X98.603Y-108.333
X100.838Y-114.784
X101.143Y-105.793
X101.143Y-108.333
X101.244Y-172.696
X101.244Y-179.148
X103.378Y-114.784
X103.683Y-105.793
X103.683Y-108.333
X103.784Y-147.296
X103.784Y-172.696
X103.784Y-179.148
X105.918Y-114.784
X106.223Y-105.793
X106.223Y-108.333
X106.324Y-147.296
X106.324Y-172.696
X106.324Y-179.148
X108.458Y-114.784
X108.763Y-105.793
X108.763Y-108.333
X108.864Y-147.296
X108.864Y-172.696
X108.864Y-179.148
X110.998Y-114.784
X111.303Y-105.793
X111.303Y-108.333
X111.404Y-147.296
X111.404Y-172.696
X113.538Y-114.784
X113.843Y-105.793
X113.843Y-108.333
X113.944Y-172.696
X116.383Y-105.793
X116.383Y-108.333
X118.923Y-105.793
X118.923Y-108.333
X121.463Y-105.793
X121.463Y-108.333
X124.003Y-105.793
X124.003Y-108.333
X126.543Y-105.793
X126.543Y-108.333
X129.083Y-105.793
X129.083Y-108.333
X131.623Y-105.793
X131.623Y-108.333
T6
X98.336Y-120.253
X98.336Y-130.413
X100.876Y-120.253
X100.876Y-130.413
X103.416Y-120.253
X103.416Y-130.413
X105.956Y-120.253
X105.956Y-130.413
X108.496Y-120.253
X108.496Y-130.413
X111.036Y-120.253
X111.036Y-130.413
X117.45Y-114.226
X117.45Y-172.392
X119.99Y-114.226
X119.99Y-172.392
X122.53Y-114.226
X122.53Y-172.392
X125.07Y-114.226
X125.07Y-172.392
X127.61Y-114.226
X127.61Y-172.392
X130.15Y-114.226
X130.15Y-172.392
T7
X87.426Y-165.248
X87.426Y-167.534
X87.426Y-169.82
T8
X85.496Y-179.832
X90.496Y-179.832
X95.496Y-179.832
T9
X81.077Y-134.62
X81.077Y-139.7
X81.077Y-144.831
X81.077Y-149.911
X81.077Y-155.042
X81.077Y-160.122
X81.077Y-165.229
X81.077Y-170.309
T5
X122.981Y-182.68G85X122.981Y-180.68
G05
X126.981Y-176.98G85X124.981Y-176.98
G05
X128.981Y-182.68G85X128.981Y-180.68
G05
T0
M30
